<svg width="2999" height="1267" viewBox="0 0 2999 1267" fill="none" xmlns="http://www.w3.org/2000/svg">
<rect width="2999" height="1267" fill="#E3FE97"/>
<path d="M872.8 749C857.8 749 843.9 746.3 831.1 740.9C818.3 735.5 807.1 728 797.5 718.4C788.1 708.6 780.8 697.1 775.6 683.9C770.4 670.7 767.8 656.3 767.8 640.7C767.8 625.1 770.4 610.7 775.6 597.5C780.8 584.3 788.1 572.9 797.5 563.3C807.1 553.5 818.3 545.9 831.1 540.5C843.9 535.1 857.8 532.4 872.8 532.4C888 532.4 902 535.1 914.8 540.5C927.6 545.9 938.7 553.5 948.1 563.3C957.5 573.1 964.8 584.6 970 597.8C975.2 610.8 977.8 625.1 977.8 640.7C977.8 656.1 975.2 670.4 970 683.6C964.8 696.8 957.5 708.3 948.1 718.1C938.7 727.9 927.6 735.5 914.8 740.9C902 746.3 888 749 872.8 749ZM872.8 711.8C882.4 711.8 891.1 710.1 898.9 706.7C906.9 703.1 913.8 698.1 919.6 691.7C925.4 685.1 929.9 677.5 933.1 668.9C936.5 660.3 938.2 650.9 938.2 640.7C938.2 630.5 936.5 621.1 933.1 612.5C929.9 603.9 925.4 596.4 919.6 590C913.8 583.4 906.9 578.4 898.9 575C891.1 571.4 882.4 569.6 872.8 569.6C863.4 569.6 854.7 571.4 846.7 575C838.7 578.4 831.8 583.3 826 589.7C820.2 596.1 815.7 603.6 812.5 612.2C809.3 620.8 807.7 630.3 807.7 640.7C807.7 650.9 809.3 660.4 812.5 669.2C815.7 677.8 820.2 685.3 826 691.7C831.8 698.1 838.7 703.1 846.7 706.7C854.7 710.1 863.4 711.8 872.8 711.8ZM1077.09 749C1063.09 749 1050.49 745.5 1039.29 738.5C1028.29 731.3 1019.49 721.6 1012.89 709.4C1006.49 697 1003.29 682.8 1003.29 666.8C1003.29 651 1006.49 636.9 1012.89 624.5C1019.29 612.1 1027.99 602.4 1038.99 595.4C1050.19 588.2 1062.79 584.6 1076.79 584.6C1084.39 584.6 1091.69 585.8 1098.69 588.2C1105.89 590.6 1112.29 593.9 1117.89 598.1C1123.49 602.1 1127.89 606.6 1131.09 611.6C1134.49 616.6 1136.39 621.8 1136.79 627.2L1126.89 628.4V524H1163.79V746H1128.09L1127.19 708.8L1134.39 709.4C1134.19 714.4 1132.39 719.2 1128.99 723.8C1125.79 728.4 1121.59 732.6 1116.39 736.4C1111.19 740.2 1105.09 743.3 1098.09 745.7C1091.29 747.9 1084.29 749 1077.09 749ZM1084.29 717.8C1092.89 717.8 1100.49 715.6 1107.09 711.2C1113.69 706.8 1118.79 700.8 1122.39 693.2C1126.19 685.6 1128.09 676.8 1128.09 666.8C1128.09 657 1126.19 648.3 1122.39 640.7C1118.79 632.9 1113.69 626.9 1107.09 622.7C1100.49 618.3 1092.89 616.1 1084.29 616.1C1075.69 616.1 1068.09 618.3 1061.49 622.7C1054.89 626.9 1049.69 632.9 1045.89 640.7C1042.29 648.3 1040.49 657 1040.49 666.8C1040.49 676.8 1042.29 685.6 1045.89 693.2C1049.69 700.8 1054.89 706.8 1061.49 711.2C1068.09 715.6 1075.69 717.8 1084.29 717.8ZM1209.88 746V587.9H1246.78V746H1209.88ZM1227.88 554.3C1220.48 554.3 1214.68 552.5 1210.48 548.9C1206.48 545.1 1204.48 539.8 1204.48 533C1204.48 526.6 1206.58 521.4 1210.78 517.4C1214.98 513.4 1220.68 511.4 1227.88 511.4C1235.48 511.4 1241.28 513.3 1245.28 517.1C1249.48 520.7 1251.58 526 1251.58 533C1251.58 539.2 1249.48 544.3 1245.28 548.3C1241.08 552.3 1235.28 554.3 1227.88 554.3ZM1293.57 746V587.9H1329.57L1330.17 620.3L1323.27 623.9C1325.27 616.7 1329.17 610.2 1334.97 604.4C1340.77 598.4 1347.67 593.6 1355.67 590C1363.67 586.4 1371.87 584.6 1380.27 584.6C1392.27 584.6 1402.27 587 1410.27 591.8C1418.47 596.6 1424.57 603.8 1428.57 613.4C1432.77 623 1434.87 635 1434.87 649.4V746H1397.97V652.1C1397.97 644.1 1396.87 637.5 1394.67 632.3C1392.47 626.9 1389.07 623 1384.47 620.6C1379.87 618 1374.27 616.8 1367.67 617C1362.27 617 1357.27 617.9 1352.67 619.7C1348.27 621.3 1344.37 623.7 1340.97 626.9C1337.77 629.9 1335.17 633.4 1333.17 637.4C1331.37 641.4 1330.47 645.8 1330.47 650.6V746H1312.17C1308.57 746 1305.17 746 1301.97 746C1298.97 746 1296.17 746 1293.57 746ZM1473.68 608.3L1461.38 593.6C1469.38 590 1475.88 585.8 1480.88 581C1485.88 576 1488.38 571.8 1488.38 568.4C1488.38 566 1487.38 563.8 1485.38 561.8C1483.58 559.6 1481.58 557.7 1479.38 556.1C1474.78 552.5 1471.68 549.4 1470.08 546.8C1468.48 544.2 1467.68 541.3 1467.68 538.1C1467.68 532.9 1469.58 528.7 1473.38 525.5C1477.38 522.3 1482.38 520.7 1488.38 520.7C1493.98 520.7 1499.08 522.2 1503.68 525.2C1508.48 528.2 1512.18 532.3 1514.78 537.5C1517.38 542.7 1518.68 548.9 1518.68 556.1C1518.68 561.7 1517.58 567.2 1515.38 572.6C1513.18 578 1509.98 583.1 1505.78 587.9C1501.78 592.5 1496.98 596.6 1491.38 600.2C1485.98 603.8 1480.08 606.5 1473.68 608.3ZM1605.06 749C1591.06 749 1578.46 746.7 1567.26 742.1C1556.26 737.3 1547.26 730.5 1540.26 721.7L1564.26 701C1570.26 707.8 1576.96 712.7 1584.36 715.7C1591.76 718.7 1599.56 720.2 1607.76 720.2C1611.16 720.2 1614.16 719.8 1616.76 719C1619.56 718.2 1621.96 717 1623.96 715.4C1625.96 713.8 1627.46 712 1628.46 710C1629.66 707.8 1630.26 705.4 1630.26 702.8C1630.26 698 1628.46 694.2 1624.86 691.4C1622.86 690 1619.66 688.5 1615.26 686.9C1611.06 685.3 1605.56 683.7 1598.76 682.1C1587.96 679.3 1578.96 676.1 1571.76 672.5C1564.56 668.7 1558.96 664.5 1554.96 659.9C1551.56 656.1 1548.96 651.8 1547.16 647C1545.56 642.2 1544.76 637 1544.76 631.4C1544.76 624.4 1546.26 618.1 1549.26 612.5C1552.46 606.7 1556.76 601.7 1562.16 597.5C1567.56 593.3 1573.86 590.1 1581.06 587.9C1588.26 585.7 1595.76 584.6 1603.56 584.6C1611.56 584.6 1619.26 585.6 1626.66 587.6C1634.26 589.6 1641.26 592.5 1647.66 596.3C1654.26 599.9 1659.86 604.3 1664.46 609.5L1644.06 632C1640.26 628.4 1636.06 625.2 1631.46 622.4C1627.06 619.6 1622.56 617.4 1617.96 615.8C1613.36 614 1609.06 613.1 1605.06 613.1C1601.26 613.1 1597.86 613.5 1594.86 614.3C1591.86 614.9 1589.36 615.9 1587.36 617.3C1585.36 618.7 1583.76 620.5 1582.56 622.7C1581.56 624.7 1581.06 627.1 1581.06 629.9C1581.26 632.3 1581.86 634.6 1582.86 636.8C1584.06 638.8 1585.66 640.5 1587.66 641.9C1589.86 643.3 1593.16 644.9 1597.56 646.7C1601.96 648.5 1607.66 650.2 1614.66 651.8C1624.46 654.4 1632.66 657.3 1639.26 660.5C1645.86 663.7 1651.06 667.4 1654.86 671.6C1658.66 675.2 1661.36 679.4 1662.96 684.2C1664.56 689 1665.36 694.3 1665.36 700.1C1665.36 709.5 1662.66 717.9 1657.26 725.3C1652.06 732.7 1644.86 738.5 1635.66 742.7C1626.66 746.9 1616.46 749 1605.06 749ZM1859.25 749C1847.05 749 1835.85 747.5 1825.65 744.5C1815.45 741.3 1806.25 736.6 1798.05 730.4C1789.85 724.2 1782.55 716.7 1776.15 707.9L1801.65 679.1C1811.45 692.7 1821.05 702.1 1830.45 707.3C1839.85 712.5 1850.45 715.1 1862.25 715.1C1869.05 715.1 1875.25 714.1 1880.85 712.1C1886.45 709.9 1890.85 707 1894.05 703.4C1897.25 699.6 1898.85 695.3 1898.85 690.5C1898.85 687.1 1898.15 684 1896.75 681.2C1895.55 678.2 1893.65 675.6 1891.05 673.4C1888.45 671 1885.25 668.8 1881.45 666.8C1877.65 664.8 1873.35 663.1 1868.55 661.7C1863.75 660.3 1858.45 659 1852.65 657.8C1841.65 655.6 1832.05 652.7 1823.85 649.1C1815.65 645.3 1808.75 640.7 1803.15 635.3C1797.55 629.7 1793.45 623.5 1790.85 616.7C1788.25 609.7 1786.95 601.8 1786.95 593C1786.95 584.2 1788.85 576.1 1792.65 568.7C1796.65 561.3 1802.05 554.9 1808.85 549.5C1815.65 544.1 1823.55 539.9 1832.55 536.9C1841.55 533.9 1851.25 532.4 1861.65 532.4C1873.45 532.4 1883.95 533.8 1893.15 536.6C1902.55 539.4 1910.75 543.6 1917.75 549.2C1924.95 554.6 1930.85 561.2 1935.45 569L1909.65 594.5C1905.65 588.3 1901.15 583.2 1896.15 579.2C1891.15 575 1885.75 571.9 1879.95 569.9C1874.15 567.7 1868.05 566.6 1861.65 566.6C1854.45 566.6 1848.15 567.6 1842.75 569.6C1837.55 571.6 1833.45 574.5 1830.45 578.3C1827.45 581.9 1825.95 586.3 1825.95 591.5C1825.95 595.5 1826.85 599.1 1828.65 602.3C1830.45 605.3 1832.95 608 1836.15 610.4C1839.55 612.8 1843.85 614.9 1849.05 616.7C1854.25 618.5 1860.15 620.1 1866.75 621.5C1877.75 623.7 1887.65 626.7 1896.45 630.5C1905.25 634.1 1912.75 638.5 1918.95 643.7C1925.15 648.7 1929.85 654.5 1933.05 661.1C1936.25 667.5 1937.85 674.7 1937.85 682.7C1937.85 696.5 1934.55 708.4 1927.95 718.4C1921.55 728.2 1912.45 735.8 1900.65 741.2C1888.85 746.4 1875.05 749 1859.25 749ZM1974.14 812V587.9H2010.44L2011.04 623.9L2004.74 621.2C2005.94 615 2009.34 609.2 2014.94 603.8C2020.54 598.2 2027.34 593.7 2035.34 590.3C2043.54 586.9 2052.04 585.2 2060.84 585.2C2074.84 585.2 2087.24 588.7 2098.04 595.7C2109.04 602.7 2117.64 612.3 2123.84 624.5C2130.24 636.7 2133.44 650.8 2133.44 666.8C2133.44 682.6 2130.24 696.7 2123.84 709.1C2117.64 721.3 2109.04 731 2098.04 738.2C2087.24 745.2 2075.04 748.7 2061.44 748.7C2052.24 748.7 2043.34 746.9 2034.74 743.3C2026.34 739.7 2019.14 735 2013.14 729.2C2007.34 723.4 2003.74 717.3 2002.34 710.9L2011.34 706.7V812H1974.14ZM2053.94 716C2062.34 716 2069.84 713.9 2076.44 709.7C2083.04 705.5 2088.14 699.7 2091.74 692.3C2095.54 684.9 2097.44 676.4 2097.44 666.8C2097.44 657.2 2095.64 648.8 2092.04 641.6C2088.44 634.2 2083.34 628.4 2076.74 624.2C2070.14 620 2062.54 617.9 2053.94 617.9C2045.14 617.9 2037.44 620 2030.84 624.2C2024.44 628.2 2019.34 633.9 2015.54 641.3C2011.74 648.7 2009.84 657.2 2009.84 666.8C2009.84 676.4 2011.74 684.9 2015.54 692.3C2019.34 699.7 2024.44 705.5 2030.84 709.7C2037.44 713.9 2045.14 716 2053.94 716ZM2240.42 749C2223.82 749 2209.12 745.5 2196.32 738.5C2183.72 731.5 2173.82 722 2166.62 710C2159.62 697.8 2156.12 683.9 2156.12 668.3C2156.12 655.9 2158.12 644.6 2162.12 634.4C2166.12 624.2 2171.62 615.4 2178.62 608C2185.82 600.4 2194.32 594.6 2204.12 590.6C2214.12 586.4 2225.02 584.3 2236.82 584.3C2247.22 584.3 2256.92 586.3 2265.92 590.3C2274.92 594.3 2282.72 599.8 2289.32 606.8C2295.92 613.6 2300.92 621.8 2304.32 631.4C2307.92 640.8 2309.62 651.1 2309.42 662.3L2309.12 675.2H2181.02L2174.12 650H2278.22L2273.42 655.1V648.5C2272.82 642.3 2270.82 636.9 2267.42 632.3C2264.02 627.5 2259.62 623.8 2254.22 621.2C2249.02 618.4 2243.22 617 2236.82 617C2227.02 617 2218.72 618.9 2211.92 622.7C2205.32 626.5 2200.32 632 2196.92 639.2C2193.52 646.2 2191.82 655 2191.82 665.6C2191.82 675.8 2193.92 684.7 2198.12 692.3C2202.52 699.9 2208.62 705.8 2216.42 710C2224.42 714 2233.72 716 2244.32 716C2251.72 716 2258.52 714.8 2264.72 712.4C2270.92 710 2277.62 705.7 2284.82 699.5L2303.12 725C2297.72 730 2291.52 734.3 2284.52 737.9C2277.72 741.3 2270.52 744 2262.92 746C2255.32 748 2247.82 749 2240.42 749ZM2401.8 749C2388.8 749 2377 745.4 2366.4 738.2C2355.8 731 2347.3 721.2 2340.9 708.8C2334.5 696.4 2331.3 682.3 2331.3 666.5C2331.3 650.7 2334.5 636.6 2340.9 624.2C2347.3 611.8 2356 602.1 2367 595.1C2378 588.1 2390.4 584.6 2404.2 584.6C2412.2 584.6 2419.5 585.8 2426.1 588.2C2432.7 590.4 2438.5 593.6 2443.5 597.8C2448.5 602 2452.6 606.8 2455.8 612.2C2459.2 617.6 2461.5 623.4 2462.7 629.6L2454.6 627.5V587.9H2491.8V746H2454.3V708.2L2463 706.7C2461.6 712.1 2459 717.4 2455.2 722.6C2451.6 727.6 2447 732.1 2441.4 736.1C2436 739.9 2429.9 743 2423.1 745.4C2416.5 747.8 2409.4 749 2401.8 749ZM2412 716.3C2420.6 716.3 2428.2 714.2 2434.8 710C2441.4 705.8 2446.5 700 2450.1 692.6C2453.9 685 2455.8 676.3 2455.8 666.5C2455.8 656.9 2453.9 648.4 2450.1 641C2446.5 633.6 2441.4 627.8 2434.8 623.6C2428.2 619.4 2420.6 617.3 2412 617.3C2403.4 617.3 2395.8 619.4 2389.2 623.6C2382.8 627.8 2377.8 633.6 2374.2 641C2370.6 648.4 2368.8 656.9 2368.8 666.5C2368.8 676.3 2370.6 685 2374.2 692.6C2377.8 700 2382.8 705.8 2389.2 710C2395.8 714.2 2403.4 716.3 2412 716.3ZM2534.58 746V587.9H2570.88L2571.48 638.3L2566.38 626.9C2568.58 618.9 2572.38 611.7 2577.78 605.3C2583.18 598.9 2589.38 593.9 2596.38 590.3C2603.58 586.5 2611.08 584.6 2618.88 584.6C2622.28 584.6 2625.48 584.9 2628.48 585.5C2631.68 586.1 2634.28 586.8 2636.28 587.6L2626.38 628.1C2624.18 626.9 2621.48 625.9 2618.28 625.1C2615.08 624.3 2611.88 623.9 2608.68 623.9C2603.68 623.9 2598.88 624.9 2594.28 626.9C2589.88 628.7 2585.98 631.3 2582.58 634.7C2579.18 638.1 2576.48 642.1 2574.48 646.7C2572.68 651.1 2571.78 656.1 2571.78 661.7V746H2534.58Z" fill="#1C3A3A"/>
<circle cx="496.213" cy="634.213" r="136.213" fill="#1C3A3A"/>
<path d="M487.754 554.097C487.754 553.828 487.863 553.569 488.056 553.381L503.515 538.328C504.149 537.711 505.213 538.16 505.213 539.045V713.912C505.213 714.177 505.107 714.432 504.919 714.619L489.46 730.048C488.83 730.677 487.754 730.231 487.754 729.341V554.097Z" fill="#E3FE97"/>
<path d="M524.869 605.098C524.869 604.828 524.978 604.569 525.172 604.381L540.63 589.329C541.264 588.712 542.328 589.161 542.328 590.045V642.936C542.328 643.202 542.222 643.456 542.034 643.644L526.576 659.073C525.945 659.702 524.869 659.256 524.869 658.365V605.098Z" fill="#E3FE97"/>
<path d="M467.986 605.098C467.986 604.828 467.877 604.569 467.684 604.381L452.225 589.329C451.591 588.711 450.527 589.16 450.527 590.045V642.936C450.527 643.202 450.633 643.456 450.821 643.644L466.28 659.073C466.91 659.702 467.986 659.256 467.986 658.365V605.098Z" fill="#E3FE97"/>
</svg>
