<svg width="2999" height="1267" viewBox="0 0 2999 1267" fill="none" xmlns="http://www.w3.org/2000/svg">
<rect width="2999" height="1267" fill="#1C3A3A"/>
<path d="M1324.7 613.8C1317.6 613.8 1311.25 612.35 1305.65 609.45C1300.15 606.55 1295.8 602.15 1292.6 596.25C1289.4 590.25 1287.8 582.7 1287.8 573.6V507H1303.7V574.5C1303.7 582.5 1305.6 588.7 1309.4 593.1C1313.2 597.4 1318.4 599.55 1325 599.55C1331.6 599.55 1336.8 597.4 1340.6 593.1C1344.4 588.7 1346.3 582.5 1346.3 574.5V507H1362.2V573.6C1362.2 582.7 1360.55 590.25 1357.25 596.25C1353.95 602.15 1349.45 606.55 1343.75 609.45C1338.15 612.35 1331.8 613.8 1324.7 613.8ZM1415.54 613.8C1405.74 613.8 1397.94 611.5 1392.14 606.9C1386.34 602.3 1383.04 596.2 1382.24 588.6H1398.59C1399.19 592.1 1400.94 594.95 1403.84 597.15C1406.84 599.35 1410.79 600.45 1415.69 600.45C1420.39 600.45 1423.99 599.5 1426.49 597.6C1429.09 595.6 1430.39 593.3 1430.39 590.7C1430.39 586.9 1428.84 584.3 1425.74 582.9C1422.74 581.5 1418.29 580.45 1412.39 579.75C1407.29 579.15 1402.64 578 1398.44 576.3C1394.34 574.5 1391.09 572.1 1388.69 569.1C1386.29 566 1385.09 562.15 1385.09 557.55C1385.09 551.05 1387.64 545.8 1392.74 541.8C1397.84 537.8 1404.94 535.8 1414.04 535.8C1423.14 535.8 1430.19 537.85 1435.19 541.95C1440.19 546.05 1443.09 551.65 1443.89 558.75H1428.59C1428.19 555.75 1426.64 553.4 1423.94 551.7C1421.24 549.9 1417.89 549 1413.89 549C1409.79 549 1406.54 549.8 1404.14 551.4C1401.74 552.9 1400.54 554.9 1400.54 557.4C1400.54 562.8 1406.34 566.1 1417.94 567.3C1423.44 567.9 1428.34 568.95 1432.64 570.45C1436.94 571.85 1440.34 574.1 1442.84 577.2C1445.34 580.2 1446.59 584.45 1446.59 589.95C1446.69 594.45 1445.39 598.5 1442.69 602.1C1440.09 605.7 1436.44 608.55 1431.74 610.65C1427.14 612.75 1421.74 613.8 1415.54 613.8ZM1505.78 613.8C1498.58 613.8 1492.23 612.2 1486.73 609C1481.23 605.7 1476.93 601.15 1473.83 595.35C1470.73 589.55 1469.18 582.8 1469.18 575.1C1469.18 567.3 1470.68 560.45 1473.68 554.55C1476.78 548.65 1481.08 544.05 1486.58 540.75C1492.18 537.45 1498.63 535.8 1505.93 535.8C1513.13 535.8 1519.33 537.45 1524.53 540.75C1529.73 543.95 1533.73 548.25 1536.53 553.65C1539.43 559.05 1540.88 565 1540.88 571.5C1540.88 572.5 1540.88 573.6 1540.88 574.8C1540.88 575.9 1540.83 577.15 1540.73 578.55H1484.78C1485.28 585.45 1487.53 590.7 1491.53 594.3C1495.53 597.8 1500.23 599.55 1505.63 599.55C1510.33 599.55 1514.03 598.6 1516.73 596.7C1519.53 594.7 1521.58 592 1522.88 588.6H1538.93C1537.13 595.7 1533.38 601.7 1527.68 606.6C1521.98 611.4 1514.68 613.8 1505.78 613.8ZM1505.78 549.6C1500.88 549.6 1496.53 551.1 1492.73 554.1C1488.93 557 1486.48 561.1 1485.38 566.4H1524.98C1524.58 561.4 1522.63 557.35 1519.13 554.25C1515.63 551.15 1511.18 549.6 1505.78 549.6ZM1661.22 645L1678.92 605.85H1674.57L1645.62 537.6H1662.87L1685.07 592.05L1708.62 537.6H1725.27L1678.02 645H1661.22ZM1774.71 613.8C1767.61 613.8 1761.26 612.2 1755.66 609C1750.06 605.8 1745.66 601.3 1742.46 595.5C1739.26 589.6 1737.66 582.7 1737.66 574.8C1737.66 566.9 1739.26 560.05 1742.46 554.25C1745.66 548.35 1750.06 543.8 1755.66 540.6C1761.26 537.4 1767.66 535.8 1774.86 535.8C1782.06 535.8 1788.41 537.4 1793.91 540.6C1799.51 543.8 1803.86 548.35 1806.96 554.25C1810.16 560.05 1811.76 566.9 1811.76 574.8C1811.76 582.7 1810.16 589.6 1806.96 595.5C1803.76 601.3 1799.36 605.8 1793.76 609C1788.26 612.2 1781.91 613.8 1774.71 613.8ZM1774.71 598.65C1778.51 598.65 1782.01 597.8 1785.21 596.1C1788.41 594.4 1790.96 591.8 1792.86 588.3C1794.86 584.7 1795.86 580.2 1795.86 574.8C1795.86 569.3 1794.86 564.8 1792.86 561.3C1790.96 557.8 1788.41 555.2 1785.21 553.5C1782.11 551.8 1778.66 550.95 1774.86 550.95C1771.06 550.95 1767.56 551.8 1764.36 553.5C1761.16 555.2 1758.56 557.8 1756.56 561.3C1754.66 564.8 1753.71 569.3 1753.71 574.8C1753.71 583 1755.76 589.05 1759.86 592.95C1764.06 596.75 1769.01 598.65 1774.71 598.65ZM1858.05 613.8C1849.05 613.8 1842.2 611.05 1837.5 605.55C1832.9 599.95 1830.6 591.85 1830.6 581.25V537.6H1846.5V579.3C1846.5 585.4 1847.8 590.2 1850.4 593.7C1853.1 597.1 1857.2 598.8 1862.7 598.8C1868.2 598.8 1872.8 596.95 1876.5 593.25C1880.2 589.55 1882.05 584.2 1882.05 577.2V537.6H1897.95V612H1884.15L1882.8 600.9H1882.05C1880.05 604.5 1876.95 607.55 1872.75 610.05C1868.55 612.55 1863.65 613.8 1858.05 613.8ZM1921.14 612V598.2H1939.29V556.35C1939.29 553.05 1937.69 551.4 1934.49 551.4H1922.64V537.6H1940.49C1944.59 537.6 1947.94 538.8 1950.54 541.2C1953.14 543.5 1954.44 546.75 1954.44 550.95V552.75H1955.19C1956.29 547.15 1958.64 542.95 1962.24 540.15C1965.94 537.25 1971.29 535.8 1978.29 535.8H1989.84V552.6H1973.64C1967.74 552.6 1963.19 554.65 1959.99 558.75C1956.79 562.85 1955.19 567.75 1955.19 573.45V598.2H1978.29V612H1921.14ZM2138.52 613.8C2133.02 613.8 2128.37 612.7 2124.57 610.5C2120.87 608.2 2118.02 605.05 2116.02 601.05H2115.12L2113.77 612H2100.12V504H2116.02V547.2C2117.82 544.2 2120.67 541.55 2124.57 539.25C2128.47 536.95 2133.12 535.8 2138.52 535.8C2144.72 535.8 2150.27 537.3 2155.17 540.3C2160.07 543.2 2163.92 547.55 2166.72 553.35C2169.62 559.15 2171.07 566.3 2171.07 574.8C2171.07 583.3 2169.62 590.45 2166.72 596.25C2163.92 602.05 2160.07 606.45 2155.17 609.45C2150.27 612.35 2144.72 613.8 2138.52 613.8ZM2135.22 598.65C2140.92 598.65 2145.62 596.7 2149.32 592.8C2153.12 588.8 2155.02 582.85 2155.02 574.95C2155.02 566.95 2153.12 560.95 2149.32 556.95C2145.62 552.95 2140.92 550.95 2135.22 550.95C2129.52 550.95 2124.77 552.95 2120.97 556.95C2117.27 560.85 2115.42 566.8 2115.42 574.8C2115.42 582.7 2117.27 588.65 2120.97 592.65C2124.77 596.65 2129.52 598.65 2135.22 598.65ZM2225.31 613.8C2218.11 613.8 2211.76 612.2 2206.26 609C2200.76 605.7 2196.46 601.15 2193.36 595.35C2190.26 589.55 2188.71 582.8 2188.71 575.1C2188.71 567.3 2190.21 560.45 2193.21 554.55C2196.31 548.65 2200.61 544.05 2206.11 540.75C2211.71 537.45 2218.16 535.8 2225.46 535.8C2232.66 535.8 2238.86 537.45 2244.06 540.75C2249.26 543.95 2253.26 548.25 2256.06 553.65C2258.96 559.05 2260.41 565 2260.41 571.5C2260.41 572.5 2260.41 573.6 2260.41 574.8C2260.41 575.9 2260.36 577.15 2260.26 578.55H2204.31C2204.81 585.45 2207.06 590.7 2211.06 594.3C2215.06 597.8 2219.76 599.55 2225.16 599.55C2229.86 599.55 2233.56 598.6 2236.26 596.7C2239.06 594.7 2241.11 592 2242.41 588.6H2258.46C2256.66 595.7 2252.91 601.7 2247.21 606.6C2241.51 611.4 2234.21 613.8 2225.31 613.8ZM2225.31 549.6C2220.41 549.6 2216.06 551.1 2212.26 554.1C2208.46 557 2206.01 561.1 2204.91 566.4H2244.51C2244.11 561.4 2242.16 557.35 2238.66 554.25C2235.16 551.15 2230.71 549.6 2225.31 549.6ZM2314.96 613.8C2305.16 613.8 2297.36 611.5 2291.56 606.9C2285.76 602.3 2282.46 596.2 2281.66 588.6H2298.01C2298.61 592.1 2300.36 594.95 2303.26 597.15C2306.26 599.35 2310.21 600.45 2315.11 600.45C2319.81 600.45 2323.41 599.5 2325.91 597.6C2328.51 595.6 2329.81 593.3 2329.81 590.7C2329.81 586.9 2328.26 584.3 2325.16 582.9C2322.16 581.5 2317.71 580.45 2311.81 579.75C2306.71 579.15 2302.06 578 2297.86 576.3C2293.76 574.5 2290.51 572.1 2288.11 569.1C2285.71 566 2284.51 562.15 2284.51 557.55C2284.51 551.05 2287.06 545.8 2292.16 541.8C2297.26 537.8 2304.36 535.8 2313.46 535.8C2322.56 535.8 2329.61 537.85 2334.61 541.95C2339.61 546.05 2342.51 551.65 2343.31 558.75H2328.01C2327.61 555.75 2326.06 553.4 2323.36 551.7C2320.66 549.9 2317.31 549 2313.31 549C2309.21 549 2305.96 549.8 2303.56 551.4C2301.16 552.9 2299.96 554.9 2299.96 557.4C2299.96 562.8 2305.76 566.1 2317.36 567.3C2322.86 567.9 2327.76 568.95 2332.06 570.45C2336.36 571.85 2339.76 574.1 2342.26 577.2C2344.76 580.2 2346.01 584.45 2346.01 589.95C2346.11 594.45 2344.81 598.5 2342.11 602.1C2339.51 605.7 2335.86 608.55 2331.16 610.65C2326.56 612.75 2321.16 613.8 2314.96 613.8ZM2412.4 612C2405.1 612 2399.3 610.25 2395 606.75C2390.7 603.15 2388.55 596.8 2388.55 587.7V551.1H2369.8V537.6H2380.9C2386 537.6 2389 535.1 2389.9 530.1L2392.15 518.1H2404.45V537.6H2433.85V551.1H2404.45V587.4C2404.45 591.3 2405.3 594.05 2407 595.65C2408.8 597.15 2411.85 597.9 2416.15 597.9H2433.55V612H2412.4ZM1297.4 807L1281.2 732.6H1296.8L1305.8 784.8L1316.45 732.6H1333.55L1344.2 784.8L1353.2 732.6H1368.8L1352.6 807H1336.25L1325 753.3L1313.75 807H1297.4ZM1415.84 808.8C1408.64 808.8 1402.29 807.2 1396.79 804C1391.29 800.7 1386.99 796.15 1383.89 790.35C1380.79 784.55 1379.24 777.8 1379.24 770.1C1379.24 762.3 1380.74 755.45 1383.74 749.55C1386.84 743.65 1391.14 739.05 1396.64 735.75C1402.24 732.45 1408.69 730.8 1415.99 730.8C1423.19 730.8 1429.39 732.45 1434.59 735.75C1439.79 738.95 1443.79 743.25 1446.59 748.65C1449.49 754.05 1450.94 760 1450.94 766.5C1450.94 767.5 1450.94 768.6 1450.94 769.8C1450.94 770.9 1450.89 772.15 1450.79 773.55H1394.84C1395.34 780.45 1397.59 785.7 1401.59 789.3C1405.59 792.8 1410.29 794.55 1415.69 794.55C1420.39 794.55 1424.09 793.6 1426.79 791.7C1429.59 789.7 1431.64 787 1432.94 783.6H1448.99C1447.19 790.7 1443.44 796.7 1437.74 801.6C1432.04 806.4 1424.74 808.8 1415.84 808.8ZM1415.84 744.6C1410.94 744.6 1406.59 746.1 1402.79 749.1C1398.99 752 1396.54 756.1 1395.44 761.4H1435.04C1434.64 756.4 1432.69 752.35 1429.19 749.25C1425.69 746.15 1421.24 744.6 1415.84 744.6ZM1498.13 808.8C1492.23 808.8 1487.28 807.8 1483.28 805.8C1479.28 803.7 1476.28 800.95 1474.28 797.55C1472.28 794.05 1471.28 790.25 1471.28 786.15C1471.28 778.85 1473.93 773.15 1479.23 769.05C1484.63 764.95 1492.23 762.9 1502.03 762.9H1521.23V761.25C1521.23 750.05 1516.03 744.45 1505.63 744.45C1501.33 744.45 1497.68 745.4 1494.68 747.3C1491.78 749.1 1489.83 752.05 1488.83 756.15H1472.93C1473.73 748.35 1477.08 742.2 1482.98 737.7C1488.98 733.1 1496.53 730.8 1505.63 730.8C1516.63 730.8 1524.63 733.5 1529.63 738.9C1534.63 744.3 1537.13 751.75 1537.13 761.25V807H1523.63L1522.28 796.05H1521.23C1519.03 799.55 1516.28 802.55 1512.98 805.05C1509.68 807.55 1504.73 808.8 1498.13 808.8ZM1501.13 795.45C1507.63 795.45 1512.48 793.5 1515.68 789.6C1518.98 785.6 1520.78 780.55 1521.08 774.45H1503.68C1497.98 774.45 1493.93 775.4 1491.53 777.3C1489.23 779.1 1488.08 781.65 1488.08 784.95C1488.08 788.25 1489.23 790.85 1491.53 792.75C1493.93 794.55 1497.13 795.45 1501.13 795.45ZM1560.17 840V732.6H1573.97L1575.17 744H1576.07C1578.07 740.3 1581.07 737.2 1585.07 734.7C1589.17 732.1 1594.02 730.8 1599.62 730.8C1605.42 730.8 1610.72 732.3 1615.52 735.3C1620.32 738.2 1624.12 742.55 1626.92 748.35C1629.82 754.05 1631.27 761.2 1631.27 769.8C1631.27 778.3 1629.77 785.45 1626.77 791.25C1623.87 797.05 1619.92 801.45 1614.92 804.45C1609.92 807.35 1604.32 808.8 1598.12 808.8C1592.62 808.8 1588.02 807.7 1584.32 805.5C1580.62 803.3 1577.87 800.8 1576.07 798V840H1560.17ZM1595.42 793.65C1601.02 793.65 1605.67 791.65 1609.37 787.65C1613.17 783.65 1615.07 777.65 1615.07 769.65C1615.07 761.65 1613.17 755.7 1609.37 751.8C1605.67 747.9 1601.02 745.95 1595.42 745.95C1589.72 745.95 1584.97 747.95 1581.17 751.95C1577.47 755.85 1575.62 761.8 1575.62 769.8C1575.62 777.7 1577.47 783.65 1581.17 787.65C1584.97 791.65 1589.72 793.65 1595.42 793.65ZM1684.77 808.8C1677.67 808.8 1671.32 807.2 1665.72 804C1660.12 800.8 1655.72 796.3 1652.52 790.5C1649.32 784.6 1647.72 777.7 1647.72 769.8C1647.72 761.9 1649.32 755.05 1652.52 749.25C1655.72 743.35 1660.12 738.8 1665.72 735.6C1671.32 732.4 1677.72 730.8 1684.92 730.8C1692.12 730.8 1698.47 732.4 1703.97 735.6C1709.57 738.8 1713.92 743.35 1717.02 749.25C1720.22 755.05 1721.82 761.9 1721.82 769.8C1721.82 777.7 1720.22 784.6 1717.02 790.5C1713.82 796.3 1709.42 800.8 1703.82 804C1698.32 807.2 1691.97 808.8 1684.77 808.8ZM1684.77 793.65C1688.57 793.65 1692.07 792.8 1695.27 791.1C1698.47 789.4 1701.02 786.8 1702.92 783.3C1704.92 779.7 1705.92 775.2 1705.92 769.8C1705.92 764.3 1704.92 759.8 1702.92 756.3C1701.02 752.8 1698.47 750.2 1695.27 748.5C1692.17 746.8 1688.72 745.95 1684.92 745.95C1681.12 745.95 1677.62 746.8 1674.42 748.5C1671.22 750.2 1668.62 752.8 1666.62 756.3C1664.72 759.8 1663.77 764.3 1663.77 769.8C1663.77 778 1665.82 784.05 1669.92 787.95C1674.12 791.75 1679.07 793.65 1684.77 793.65ZM1741.41 807V732.6H1755.21L1756.56 743.7H1757.31C1759.31 740.1 1762.41 737.05 1766.61 734.55C1770.81 732.05 1775.66 730.8 1781.16 730.8C1790.26 730.8 1797.11 733.55 1801.71 739.05C1806.31 744.55 1808.61 752.65 1808.61 763.35V807H1792.71V765.3C1792.71 759.1 1791.41 754.3 1788.81 750.9C1786.21 747.5 1782.11 745.8 1776.51 745.8C1771.01 745.8 1766.41 747.65 1762.71 751.35C1759.11 755.05 1757.31 760.4 1757.31 767.4V807H1741.41ZM1864.65 807.9C1860.95 807.9 1857.8 806.7 1855.2 804.3C1852.6 801.8 1851.3 798.8 1851.3 795.3C1851.3 791.8 1852.6 788.85 1855.2 786.45C1857.8 784.05 1860.95 782.85 1864.65 782.85C1868.45 782.85 1871.6 784.05 1874.1 786.45C1876.7 788.85 1878 791.8 1878 795.3C1878 798.8 1876.7 801.8 1874.1 804.3C1871.6 806.7 1868.45 807.9 1864.65 807.9Z" fill="white"/>
<path d="M2089.47 630.75H2449.3V638.25H2089.47V630.75Z" fill="white"/>
<circle cx="778.771" cy="633.771" r="262.771" fill="#E3FE97"/>
<path d="M761.814 479.217C761.814 478.947 761.923 478.689 762.117 478.501L793.797 447.653C794.431 447.036 795.495 447.485 795.495 448.369V788.295C795.495 788.561 795.389 788.815 795.201 789.003L763.521 820.622C762.891 821.251 761.814 820.804 761.814 819.914V479.217Z" fill="#1C3A3A"/>
<path d="M833.414 577.603C833.414 577.333 833.523 577.075 833.716 576.887L865.397 546.039C866.03 545.422 867.094 545.871 867.094 546.755V651.375C867.094 651.641 866.989 651.895 866.801 652.083L835.12 683.702C834.49 684.331 833.414 683.885 833.414 682.994V577.603Z" fill="#1C3A3A"/>
<path d="M723.681 577.603C723.681 577.333 723.572 577.075 723.378 576.887L691.698 546.039C691.064 545.422 690 545.871 690 546.755V651.375C690 651.641 690.106 651.895 690.294 652.083L721.974 683.702C722.604 684.331 723.681 683.885 723.681 682.994V577.603Z" fill="#1C3A3A"/>
</svg>
