<?xml version="1.0" encoding="UTF-8" standalone="no"?>
<!DOCTYPE svg PUBLIC "-//W3C//DTD SVG 1.1//EN"
 "http://www.w3.org/Graphics/SVG/1.1/DTD/svg11.dtd">
<!-- Generated by graphviz version 8.0.5 (20230430.1635)
 -->
<!-- Pages: 1 -->
<svg width="837pt" height="394pt"
 viewBox="0.00 0.00 836.79 394.50" xmlns="http://www.w3.org/2000/svg" xmlns:xlink="http://www.w3.org/1999/xlink">
<g id="graph0" class="graph" transform="scale(1 1) rotate(0) translate(4 390.5)">
<polygon fill="white" stroke="none" points="-4,4 -4,-390.5 832.79,-390.5 832.79,4 -4,4"/>
<text text-anchor="middle" x="414.39" y="-7.2" font-family="Arial" font-size="14.00" fill="white">3213061544</text>
<!-- Start -->
<g id="node1" class="node">
<title>Start</title>
<ellipse fill="#020300" stroke="#020300" cx="41.05" cy="-178.8" rx="41.05" ry="32.03"/>
<text text-anchor="middle" x="41.05" y="-173.75" font-family="Arial" font-size="14.00" fill="white">Start</text>
</g>
<!-- JRDNEVA101@jrdneva.ev.com -->
<g id="node9" class="node">
<title>JRDNEVA101@jrdneva.ev.com</title>
<polygon fill="#fba200" stroke="#b87700" points="172.65,-224.1 119.1,-178.8 172.65,-133.5 226.2,-178.8 172.65,-224.1"/>
<text text-anchor="middle" x="172.65" y="-173.75" font-family="Arial" font-size="14.00" fill="white">101</text>
</g>
<!-- Start&#45;&gt;JRDNEVA101@jrdneva.ev.com -->
<g id="edge10" class="edge">
<title>Start&#45;&gt;JRDNEVA101@jrdneva.ev.com</title>
<path fill="none" stroke="black" d="M82.34,-178.8C90.39,-178.8 99.03,-178.8 107.64,-178.8"/>
<polygon fill="black" stroke="black" points="107.5,-182.3 117.5,-178.8 107.5,-175.3 107.5,-182.3"/>
</g>
<!-- basic_aa@jrdneva.ev.com -->
<g id="node2" class="node">
<title>basic_aa@jrdneva.ev.com</title>
<ellipse fill="#ff0000" stroke="#5e1008" cx="750.49" cy="-342.8" rx="43.7" ry="43.7"/>
<text text-anchor="middle" x="750.49" y="-337.75" font-family="Arial" font-size="14.00" fill="white">3001</text>
</g>
<!-- basic_aa@jrdneva.ev.com&#45;&gt;JRDNEVA101@jrdneva.ev.com -->
<g id="edge1" class="edge">
<title>basic_aa@jrdneva.ev.com&#45;&gt;JRDNEVA101@jrdneva.ev.com</title>
<path fill="none" stroke="black" d="M707.01,-348.69C653.53,-354.88 559.09,-361.7 480.3,-345.8 394.93,-328.57 375.62,-312.45 299.7,-269.8 267.42,-251.67 233.55,-226.85 209.05,-207.7"/>
<polygon fill="black" stroke="black" points="211.49,-204.38 201.47,-200.93 207.15,-209.88 211.49,-204.38"/>
<text text-anchor="middle" x="443.55" y="-344.25" font-family="Times New Roman,serif" font-size="14.00">0</text>
</g>
<!-- testing@jrdneva.ev.com -->
<g id="node3" class="node">
<title>testing@jrdneva.ev.com</title>
<polygon fill="#9c1fe9" stroke="#3d4066" points="814.56,-258.1 712.64,-258.1 686.42,-167.5 788.34,-167.5 814.56,-258.1"/>
<text text-anchor="middle" x="750.49" y="-207.75" font-family="Arial" font-size="14.00" fill="white">2001</text>
</g>
<!-- JRDNEVA102@jrdneva.ev.com -->
<g id="node7" class="node">
<title>JRDNEVA102@jrdneva.ev.com</title>
<polygon fill="#fba200" stroke="#b87700" points="353.25,-261.1 299.7,-215.8 353.25,-170.5 406.8,-215.8 353.25,-261.1"/>
<text text-anchor="middle" x="353.25" y="-210.75" font-family="Arial" font-size="14.00" fill="white">102</text>
</g>
<!-- testing@jrdneva.ev.com&#45;&gt;JRDNEVA102@jrdneva.ev.com -->
<g id="edge3" class="edge">
<title>testing@jrdneva.ev.com&#45;&gt;JRDNEVA102@jrdneva.ev.com</title>
<path fill="none" stroke="black" d="M699.29,-213.18C627.54,-213.73 495.7,-214.73 417.41,-215.32"/>
<polygon fill="black" stroke="black" points="417.7,-211.83 407.73,-215.4 417.76,-218.83 417.7,-211.83"/>
<text text-anchor="middle" x="544.37" y="-217.25" font-family="Times New Roman,serif" font-size="14.00">CFNR</text>
</g>
<!-- testing@jrdneva.ev.com&#45;&gt;JRDNEVA101@jrdneva.ev.com -->
<g id="edge2" class="edge">
<title>testing@jrdneva.ev.com&#45;&gt;JRDNEVA101@jrdneva.ev.com</title>
<path fill="none" stroke="black" d="M692.18,-189.21C627.9,-165.29 520.12,-132.74 424.8,-140.05 356.15,-145.31 277.87,-158.56 227.21,-168.1"/>
<polygon fill="black" stroke="black" points="226.69,-164.83 217.52,-170.13 228,-171.7 226.69,-164.83"/>
<text text-anchor="middle" x="443.55" y="-143.25" font-family="Times New Roman,serif" font-size="14.00">NACF</text>
</g>
<!-- JRDNEVA104@jrdneva.ev.com -->
<g id="node4" class="node">
<title>JRDNEVA104@jrdneva.ev.com</title>
<polygon fill="#fba200" stroke="#b87700" points="544.37,-337.1 490.82,-291.8 544.37,-246.5 597.92,-291.8 544.37,-337.1"/>
<text text-anchor="middle" x="544.37" y="-286.75" font-family="Arial" font-size="14.00" fill="white">104</text>
</g>
<!-- JRDNEVA104@jrdneva.ev.com&#45;&gt;basic_aa@jrdneva.ev.com -->
<g id="edge4" class="edge">
<title>JRDNEVA104@jrdneva.ev.com&#45;&gt;basic_aa@jrdneva.ev.com</title>
<path fill="none" stroke="black" d="M586.18,-302C618.13,-309.98 662.78,-321.14 697.32,-329.77"/>
<polygon fill="black" stroke="black" points="696.14,-333.33 706.69,-332.36 697.84,-326.54 696.14,-333.33"/>
<text text-anchor="middle" x="640.31" y="-321.25" font-family="Times New Roman,serif" font-size="14.00">CFA</text>
</g>
<!-- JRDNEVA104@jrdneva.ev.com&#45;&gt;testing@jrdneva.ev.com -->
<g id="edge5" class="edge">
<title>JRDNEVA104@jrdneva.ev.com&#45;&gt;testing@jrdneva.ev.com</title>
<path fill="none" stroke="black" d="M581.86,-277.68C613.2,-265.55 658.85,-247.88 694.59,-234.05"/>
<polygon fill="black" stroke="black" points="695.33,-237.13 703.39,-230.25 692.81,-230.6 695.33,-237.13"/>
<text text-anchor="middle" x="640.31" y="-261.25" font-family="Times New Roman,serif" font-size="14.00">CFB</text>
</g>
<!-- JRDNEVA141401_EVA_EL@jrdneva.ev.com -->
<g id="node5" class="node">
<title>JRDNEVA141401_EVA_EL@jrdneva.ev.com</title>
<polygon fill="#fba200" stroke="#b87700" points="750.49,-115.1 672.19,-69.8 750.49,-24.5 828.79,-69.8 750.49,-115.1"/>
<text text-anchor="middle" x="750.49" y="-64.75" font-family="Arial" font-size="14.00" fill="white">141401</text>
</g>
<!-- basic_cc@jrdneva.ev.com -->
<g id="node6" class="node">
<title>basic_cc@jrdneva.ev.com</title>
<polygon fill="#ffc0cb" stroke="#68272e" points="608.44,-115.1 506.51,-115.1 480.3,-24.5 582.22,-24.5 608.44,-115.1"/>
<text text-anchor="middle" x="544.37" y="-64.75" font-family="Arial" font-size="14.00" fill="white">1001</text>
</g>
<!-- basic_cc@jrdneva.ev.com&#45;&gt;JRDNEVA141401_EVA_EL@jrdneva.ev.com -->
<g id="edge6" class="edge">
<title>basic_cc@jrdneva.ev.com&#45;&gt;JRDNEVA141401_EVA_EL@jrdneva.ev.com</title>
<path fill="none" stroke="black" d="M595.82,-69.8C615.4,-69.8 638.42,-69.8 660.6,-69.8"/>
<polygon fill="black" stroke="black" points="660.4,-73.3 670.4,-69.8 660.4,-66.3 660.4,-73.3"/>
<text text-anchor="middle" x="640.31" y="-72.25" font-family="Times New Roman,serif" font-size="14.00">OF</text>
</g>
<!-- JRDNEVA102@jrdneva.ev.com&#45;&gt;JRDNEVA104@jrdneva.ev.com -->
<g id="edge7" class="edge">
<title>JRDNEVA102@jrdneva.ev.com&#45;&gt;JRDNEVA104@jrdneva.ev.com</title>
<path fill="none" stroke="black" d="M390.26,-230.27C420.76,-242.53 464.65,-260.17 497.63,-273.42"/>
<polygon fill="black" stroke="black" points="495.9,-276.9 506.48,-277.38 498.51,-270.4 495.9,-276.9"/>
<text text-anchor="middle" x="443.55" y="-260.25" font-family="Times New Roman,serif" font-size="14.00">CFA</text>
</g>
<!-- JRDNEVA102@jrdneva.ev.com&#45;&gt;basic_cc@jrdneva.ev.com -->
<g id="edge8" class="edge">
<title>JRDNEVA102@jrdneva.ev.com&#45;&gt;basic_cc@jrdneva.ev.com</title>
<path fill="none" stroke="black" d="M388.3,-199.8C415.05,-186.93 449.8,-169.46 462.3,-159.8 475.94,-149.26 489.16,-136.24 500.83,-123.41"/>
<polygon fill="black" stroke="black" points="502.85,-126.27 506.88,-116.47 497.62,-121.62 502.85,-126.27"/>
<text text-anchor="middle" x="443.55" y="-182.25" font-family="Times New Roman,serif" font-size="14.00">CFB</text>
</g>
<!-- JRDNEVA103@jrdneva.ev.com -->
<g id="node8" class="node">
<title>JRDNEVA103@jrdneva.ev.com</title>
<polygon fill="#fba200" stroke="#b87700" points="353.25,-115.1 299.7,-69.8 353.25,-24.5 406.8,-69.8 353.25,-115.1"/>
<text text-anchor="middle" x="353.25" y="-64.75" font-family="Arial" font-size="14.00" fill="white">103</text>
</g>
<!-- JRDNEVA103@jrdneva.ev.com&#45;&gt;basic_cc@jrdneva.ev.com -->
<g id="edge9" class="edge">
<title>JRDNEVA103@jrdneva.ev.com&#45;&gt;basic_cc@jrdneva.ev.com</title>
<path fill="none" stroke="black" d="M407.43,-69.8C430.74,-69.8 458.22,-69.8 482.35,-69.8"/>
<polygon fill="black" stroke="black" points="482.18,-73.3 492.18,-69.8 482.18,-66.3 482.18,-73.3"/>
<text text-anchor="middle" x="443.55" y="-72.25" font-family="Times New Roman,serif" font-size="14.00">CFB</text>
</g>
<!-- JRDNEVA101@jrdneva.ev.com&#45;&gt;JRDNEVA102@jrdneva.ev.com -->
<g id="edge11" class="edge">
<title>JRDNEVA101@jrdneva.ev.com&#45;&gt;JRDNEVA102@jrdneva.ev.com</title>
<path fill="none" stroke="black" d="M216.42,-187.66C241.19,-192.79 272.57,-199.29 298.93,-204.75"/>
<polygon fill="black" stroke="black" points="298,-208.34 308.51,-206.95 299.42,-201.49 298,-208.34"/>
<text text-anchor="middle" x="262.95" y="-202.25" font-family="Times New Roman,serif" font-size="14.00">CFB</text>
</g>
<!-- JRDNEVA101@jrdneva.ev.com&#45;&gt;JRDNEVA103@jrdneva.ev.com -->
<g id="edge12" class="edge">
<title>JRDNEVA101@jrdneva.ev.com&#45;&gt;JRDNEVA103@jrdneva.ev.com</title>
<path fill="none" stroke="black" d="M196.59,-153.26C209.57,-139.95 226.67,-124.17 244.2,-113.05 262.19,-101.63 283.7,-92.28 302.77,-85.23"/>
<polygon fill="black" stroke="black" points="303.83,-88.21 312.07,-81.55 301.48,-81.62 303.83,-88.21"/>
<text text-anchor="middle" x="262.95" y="-116.25" font-family="Times New Roman,serif" font-size="14.00">CFNR</text>
</g>
</g>
</svg>
