<?xml version="1.0" encoding="UTF-8" standalone="no"?>
<!DOCTYPE svg PUBLIC "-//W3C//DTD SVG 1.1//EN"
 "http://www.w3.org/Graphics/SVG/1.1/DTD/svg11.dtd">
<!-- Generated by graphviz version 9.0.0 (20230911.1827)
 -->
<!-- Pages: 1 -->
<svg width="592pt" height="257pt"
 viewBox="0.00 0.00 591.81 257.30" xmlns="http://www.w3.org/2000/svg" xmlns:xlink="http://www.w3.org/1999/xlink">
<g id="graph0" class="graph" transform="scale(1 1) rotate(0) translate(4 253.3)">
<polygon fill="white" stroke="none" points="-4,4 -4,-253.3 587.81,-253.3 587.81,4 -4,4"/>
<text text-anchor="middle" x="291.9" y="-6.45" font-family="Arial" font-size="14.00" fill="white">3213061544</text>
<!-- Start -->
<g id="node1" class="node">
<title>Start</title>
<polygon fill="#020300" stroke="#020300" points="0,-131.25 0,-175.8 57.3,-175.8 57.3,-131.25 0,-131.25"/>
<text text-anchor="middle" x="28.65" y="-148.1" font-family="Arial" font-size="14.00" fill="white">Start</text>
</g>
<!-- basic_aa@jrdneva.ev.com -->
<g id="node6" class="node">
<title>basic_aa@jrdneva.ev.com</title>
<ellipse fill="#ff0000" stroke="#5e1008" cx="135.88" cy="-153.53" rx="41.58" ry="41.58"/>
<text text-anchor="middle" x="135.88" y="-148.1" font-family="Arial" font-size="14.00" fill="white">3001</text>
</g>
<!-- Start&#45;&gt;basic_aa@jrdneva.ev.com -->
<g id="edge5" class="edge">
<title>Start&#45;&gt;basic_aa@jrdneva.ev.com</title>
<path fill="none" stroke="black" d="M57.57,-153.53C65.36,-153.53 74.09,-153.53 82.79,-153.53"/>
<polygon fill="black" stroke="black" points="82.63,-157.03 92.63,-153.53 82.63,-150.03 82.63,-157.03"/>
</g>
<!-- JRDNEVA104@jrdneva.ev.com -->
<g id="node2" class="node">
<title>JRDNEVA104@jrdneva.ev.com</title>
<path fill="#fba200" stroke="#b87700" d="M257.86,-204.25C257.86,-204.25 287.86,-204.25 287.86,-204.25 293.86,-204.25 299.86,-210.25 299.86,-216.25 299.86,-216.25 299.86,-236.8 299.86,-236.8 299.86,-242.8 293.86,-248.8 287.86,-248.8 287.86,-248.8 257.86,-248.8 257.86,-248.8 251.86,-248.8 245.86,-242.8 245.86,-236.8 245.86,-236.8 245.86,-216.25 245.86,-216.25 245.86,-210.25 251.86,-204.25 257.86,-204.25"/>
<text text-anchor="middle" x="272.86" y="-221.1" font-family="Arial" font-size="14.00" fill="white">104</text>
</g>
<!-- testing@jrdneva.ev.com -->
<g id="node4" class="node">
<title>testing@jrdneva.ev.com</title>
<path fill="#9c1fe9" stroke="#3d4066" d="M409.51,-163.25C409.51,-163.25 444.31,-163.25 444.31,-163.25 450.31,-163.25 456.31,-169.25 456.31,-175.25 456.31,-175.25 456.31,-195.8 456.31,-195.8 456.31,-201.8 450.31,-207.8 444.31,-207.8 444.31,-207.8 409.51,-207.8 409.51,-207.8 403.51,-207.8 397.51,-201.8 397.51,-195.8 397.51,-195.8 397.51,-175.25 397.51,-175.25 397.51,-169.25 403.51,-163.25 409.51,-163.25"/>
<text text-anchor="middle" x="426.91" y="-180.1" font-family="Arial" font-size="14.00" fill="white">2001</text>
</g>
<!-- JRDNEVA104@jrdneva.ev.com&#45;&gt;testing@jrdneva.ev.com -->
<g id="edge1" class="edge">
<title>JRDNEVA104@jrdneva.ev.com&#45;&gt;testing@jrdneva.ev.com</title>
<path fill="none" stroke="black" d="M300.31,-228.79C322.2,-229.73 353.77,-228.9 379.51,-219.53 383.39,-218.11 387.24,-216.26 390.95,-214.16"/>
<polygon fill="black" stroke="black" points="392.6,-217.26 399.14,-208.93 388.83,-211.36 392.6,-217.26"/>
<text text-anchor="middle" x="361.13" y="-229.97" font-family="Arial" font-size="14.00">CFB</text>
</g>
<!-- JRDNEVA102@jrdneva.ev.com -->
<g id="node3" class="node">
<title>JRDNEVA102@jrdneva.ev.com</title>
<path fill="#fba200" stroke="#b87700" d="M541.81,-163.25C541.81,-163.25 571.81,-163.25 571.81,-163.25 577.81,-163.25 583.81,-169.25 583.81,-175.25 583.81,-175.25 583.81,-195.8 583.81,-195.8 583.81,-201.8 577.81,-207.8 571.81,-207.8 571.81,-207.8 541.81,-207.8 541.81,-207.8 535.81,-207.8 529.81,-201.8 529.81,-195.8 529.81,-195.8 529.81,-175.25 529.81,-175.25 529.81,-169.25 535.81,-163.25 541.81,-163.25"/>
<text text-anchor="middle" x="556.81" y="-180.1" font-family="Arial" font-size="14.00" fill="white">102</text>
</g>
<!-- testing@jrdneva.ev.com&#45;&gt;JRDNEVA104@jrdneva.ev.com -->
<g id="edge2" class="edge">
<title>testing@jrdneva.ev.com&#45;&gt;JRDNEVA104@jrdneva.ev.com</title>
<path fill="none" stroke="black" d="M397.12,-189.01C380.96,-191.32 360.54,-194.85 342.76,-199.78 332.22,-202.69 321.07,-206.63 310.87,-210.58"/>
<polygon fill="black" stroke="black" points="309.65,-207.3 301.67,-214.27 312.25,-213.8 309.65,-207.3"/>
<text text-anchor="middle" x="361.13" y="-201.97" font-family="Arial" font-size="14.00">NACF</text>
</g>
<!-- testing@jrdneva.ev.com&#45;&gt;JRDNEVA102@jrdneva.ev.com -->
<g id="edge3" class="edge">
<title>testing@jrdneva.ev.com&#45;&gt;JRDNEVA102@jrdneva.ev.com</title>
<path fill="none" stroke="black" d="M456.61,-185.53C474.75,-185.53 498.39,-185.53 518.04,-185.53"/>
<polygon fill="black" stroke="black" points="517.86,-189.03 527.86,-185.53 517.86,-182.03 517.86,-189.03"/>
<text text-anchor="middle" x="493.06" y="-187.97" font-family="Arial" font-size="14.00">CFNR</text>
</g>
<!-- basic_cc@jrdneva.ev.com -->
<g id="node5" class="node">
<title>basic_cc@jrdneva.ev.com</title>
<path fill="#ffc0cb" stroke="#68272e" d="M255.46,-88.25C255.46,-88.25 290.26,-88.25 290.26,-88.25 296.26,-88.25 302.26,-94.25 302.26,-100.25 302.26,-100.25 302.26,-120.8 302.26,-120.8 302.26,-126.8 296.26,-132.8 290.26,-132.8 290.26,-132.8 255.46,-132.8 255.46,-132.8 249.46,-132.8 243.46,-126.8 243.46,-120.8 243.46,-120.8 243.46,-100.25 243.46,-100.25 243.46,-94.25 249.46,-88.25 255.46,-88.25"/>
<text text-anchor="middle" x="272.86" y="-105.1" font-family="Arial" font-size="14.00" fill="white">1001</text>
</g>
<!-- basic_cc@jrdneva.ev.com&#45;&gt;testing@jrdneva.ev.com -->
<g id="edge4" class="edge">
<title>basic_cc@jrdneva.ev.com&#45;&gt;testing@jrdneva.ev.com</title>
<path fill="none" stroke="black" d="M302.74,-114.46C324.89,-118.41 355.62,-125.96 379.51,-139.78 386.64,-143.9 393.48,-149.39 399.6,-155.12"/>
<polygon fill="black" stroke="black" points="396.86,-157.33 406.41,-161.92 401.81,-152.38 396.86,-157.33"/>
<text text-anchor="middle" x="361.13" y="-141.97" font-family="Arial" font-size="14.00">OF</text>
</g>
<!-- basic_aa@jrdneva.ev.com&#45;&gt;JRDNEVA104@jrdneva.ev.com -->
<g id="edge8" class="edge">
<title>basic_aa@jrdneva.ev.com&#45;&gt;JRDNEVA104@jrdneva.ev.com</title>
<path fill="none" stroke="black" d="M173.05,-173.09C192.38,-183.54 216.11,-196.38 235.47,-206.85"/>
<polygon fill="black" stroke="black" points="233.64,-209.84 244.1,-211.52 236.97,-203.68 233.64,-209.84"/>
<text text-anchor="middle" x="199.21" y="-189.97" font-family="Arial" font-size="14.00">2</text>
</g>
<!-- basic_aa@jrdneva.ev.com&#45;&gt;testing@jrdneva.ev.com -->
<g id="edge7" class="edge">
<title>basic_aa@jrdneva.ev.com&#45;&gt;testing@jrdneva.ev.com</title>
<path fill="none" stroke="black" d="M177.68,-158.04C232.91,-164.16 330.86,-175 385.76,-181.08"/>
<polygon fill="black" stroke="black" points="385.29,-184.55 395.61,-182.17 386.06,-177.59 385.29,-184.55"/>
<text text-anchor="middle" x="272.86" y="-175.97" font-family="Arial" font-size="14.00">1</text>
</g>
<!-- basic_aa@jrdneva.ev.com&#45;&gt;basic_cc@jrdneva.ev.com -->
<g id="edge6" class="edge">
<title>basic_aa@jrdneva.ev.com&#45;&gt;basic_cc@jrdneva.ev.com</title>
<path fill="none" stroke="black" d="M175.92,-141.09C193.63,-135.45 214.54,-128.78 232.31,-123.12"/>
<polygon fill="black" stroke="black" points="233.29,-126.49 241.75,-120.12 231.16,-119.82 233.29,-126.49"/>
<text text-anchor="middle" x="199.21" y="-136.97" font-family="Arial" font-size="14.00">0</text>
</g>
<!-- 0123456789 -->
<g id="node7" class="node">
<title>0123456789</title>
<polygon fill="#020300" stroke="#020300" points="220.96,-24.25 220.96,-68.8 324.76,-68.8 324.76,-24.25 220.96,-24.25"/>
<text text-anchor="middle" x="272.86" y="-41.1" font-family="Arial" font-size="14.00" fill="white">0123456789</text>
</g>
<!-- basic_aa@jrdneva.ev.com&#45;&gt;0123456789 -->
<g id="edge9" class="edge">
<title>basic_aa@jrdneva.ev.com&#45;&gt;0123456789</title>
<path fill="none" stroke="black" d="M166.58,-124.82C182.22,-110.28 202.04,-92.75 220.96,-78.53 222.26,-77.54 223.59,-76.56 224.95,-75.59"/>
<polygon fill="black" stroke="black" points="226.64,-78.67 232.88,-70.11 222.66,-72.91 226.64,-78.67"/>
<text text-anchor="middle" x="199.21" y="-100.98" font-family="Arial" font-size="14.00">3</text>
</g>
</g>
</svg>
