<?xml version="1.0" encoding="UTF-8" standalone="no"?>
<!DOCTYPE svg PUBLIC "-//W3C//DTD SVG 1.1//EN"
 "http://www.w3.org/Graphics/SVG/1.1/DTD/svg11.dtd">
<!-- Generated by graphviz version 9.0.0 (20230911.1827)
 -->
<!-- Pages: 1 -->
<svg width="602pt" height="248pt"
 viewBox="0.00 0.00 601.97 247.53" xmlns="http://www.w3.org/2000/svg" xmlns:xlink="http://www.w3.org/1999/xlink">
<g id="graph0" class="graph" transform="scale(1 1) rotate(0) translate(4 243.53)">
<polygon fill="white" stroke="none" points="-4,4 -4,-243.53 597.97,-243.53 597.97,4 -4,4"/>
<text text-anchor="middle" x="296.98" y="-6.45" font-family="Arial" font-size="14.00" fill="white">3213061544</text>
<!-- Start -->
<g id="node1" class="node">
<title>Start</title>
<polygon fill="#020300" stroke="#020300" points="0,-121.47 0,-166.03 57.3,-166.03 57.3,-121.47 0,-121.47"/>
<text text-anchor="middle" x="28.65" y="-138.32" font-family="Arial" font-size="14.00" fill="white">Start</text>
</g>
<!-- basic_aa@jrdneva.ev.com -->
<g id="node6" class="node">
<title>basic_aa@jrdneva.ev.com</title>
<ellipse fill="#ff0000" stroke="#5e1008" cx="135.88" cy="-143.75" rx="41.58" ry="41.58"/>
<text text-anchor="middle" x="135.88" y="-138.32" font-family="Arial" font-size="14.00" fill="white">3001</text>
</g>
<!-- Start&#45;&gt;basic_aa@jrdneva.ev.com -->
<g id="edge5" class="edge">
<title>Start&#45;&gt;basic_aa@jrdneva.ev.com</title>
<path fill="none" stroke="black" d="M57.57,-143.75C65.36,-143.75 74.09,-143.75 82.79,-143.75"/>
<polygon fill="black" stroke="black" points="82.63,-147.25 92.63,-143.75 82.63,-140.25 82.63,-147.25"/>
</g>
<!-- JRDNEVA104@jrdneva.ev.com -->
<g id="node2" class="node">
<title>JRDNEVA104@jrdneva.ev.com</title>
<path fill="#fba200" stroke="#b87700" d="M262.94,-194.47C262.94,-194.47 292.94,-194.47 292.94,-194.47 298.94,-194.47 304.94,-200.47 304.94,-206.47 304.94,-206.47 304.94,-227.03 304.94,-227.03 304.94,-233.03 298.94,-239.03 292.94,-239.03 292.94,-239.03 262.94,-239.03 262.94,-239.03 256.94,-239.03 250.94,-233.03 250.94,-227.03 250.94,-227.03 250.94,-206.47 250.94,-206.47 250.94,-200.47 256.94,-194.47 262.94,-194.47"/>
<text text-anchor="middle" x="277.94" y="-211.32" font-family="Arial" font-size="14.00" fill="white">104</text>
</g>
<!-- testing@jrdneva.ev.com -->
<g id="node4" class="node">
<title>testing@jrdneva.ev.com</title>
<path fill="#9c1fe9" stroke="#3d4066" d="M419.67,-153.47C419.67,-153.47 454.47,-153.47 454.47,-153.47 460.47,-153.47 466.47,-159.47 466.47,-165.47 466.47,-165.47 466.47,-186.03 466.47,-186.03 466.47,-192.03 460.47,-198.03 454.47,-198.03 454.47,-198.03 419.67,-198.03 419.67,-198.03 413.67,-198.03 407.67,-192.03 407.67,-186.03 407.67,-186.03 407.67,-165.47 407.67,-165.47 407.67,-159.47 413.67,-153.47 419.67,-153.47"/>
<text text-anchor="middle" x="437.07" y="-170.32" font-family="Arial" font-size="14.00" fill="white">2001</text>
</g>
<!-- JRDNEVA104@jrdneva.ev.com&#45;&gt;testing@jrdneva.ev.com -->
<g id="edge1" class="edge">
<title>JRDNEVA104@jrdneva.ev.com&#45;&gt;testing@jrdneva.ev.com</title>
<path fill="none" stroke="black" d="M305.28,-219.16C328.27,-220.32 362.14,-219.73 389.67,-209.75 393.56,-208.34 397.41,-206.5 401.12,-204.39"/>
<polygon fill="black" stroke="black" points="402.76,-207.5 409.31,-199.17 399,-201.6 402.76,-207.5"/>
<text text-anchor="middle" x="371.29" y="-220.2" font-family="Arial" font-size="14.00">CFB</text>
</g>
<!-- JRDNEVA102@jrdneva.ev.com -->
<g id="node3" class="node">
<title>JRDNEVA102@jrdneva.ev.com</title>
<path fill="#fba200" stroke="#b87700" d="M551.97,-153.47C551.97,-153.47 581.97,-153.47 581.97,-153.47 587.97,-153.47 593.97,-159.47 593.97,-165.47 593.97,-165.47 593.97,-186.03 593.97,-186.03 593.97,-192.03 587.97,-198.03 581.97,-198.03 581.97,-198.03 551.97,-198.03 551.97,-198.03 545.97,-198.03 539.97,-192.03 539.97,-186.03 539.97,-186.03 539.97,-165.47 539.97,-165.47 539.97,-159.47 545.97,-153.47 551.97,-153.47"/>
<text text-anchor="middle" x="566.97" y="-170.32" font-family="Arial" font-size="14.00" fill="white">102</text>
</g>
<!-- testing@jrdneva.ev.com&#45;&gt;JRDNEVA104@jrdneva.ev.com -->
<g id="edge2" class="edge">
<title>testing@jrdneva.ev.com&#45;&gt;JRDNEVA104@jrdneva.ev.com</title>
<path fill="none" stroke="black" d="M407.32,-179.39C391.18,-181.76 370.76,-185.29 352.92,-190 340.71,-193.23 327.67,-197.61 315.99,-201.9"/>
<polygon fill="black" stroke="black" points="314.82,-198.6 306.7,-205.4 317.29,-205.15 314.82,-198.6"/>
<text text-anchor="middle" x="371.29" y="-192.2" font-family="Arial" font-size="14.00">NACF</text>
</g>
<!-- testing@jrdneva.ev.com&#45;&gt;JRDNEVA102@jrdneva.ev.com -->
<g id="edge3" class="edge">
<title>testing@jrdneva.ev.com&#45;&gt;JRDNEVA102@jrdneva.ev.com</title>
<path fill="none" stroke="black" d="M466.77,-175.75C484.91,-175.75 508.55,-175.75 528.2,-175.75"/>
<polygon fill="black" stroke="black" points="528.03,-179.25 538.03,-175.75 528.03,-172.25 528.03,-179.25"/>
<text text-anchor="middle" x="503.22" y="-178.2" font-family="Arial" font-size="14.00">CFNR</text>
</g>
<!-- basic_cc@jrdneva.ev.com -->
<g id="node5" class="node">
<title>basic_cc@jrdneva.ev.com</title>
<path fill="#ffc0cb" stroke="#68272e" d="M260.54,-78.47C260.54,-78.47 295.34,-78.47 295.34,-78.47 301.34,-78.47 307.34,-84.47 307.34,-90.47 307.34,-90.47 307.34,-111.03 307.34,-111.03 307.34,-117.03 301.34,-123.03 295.34,-123.03 295.34,-123.03 260.54,-123.03 260.54,-123.03 254.54,-123.03 248.54,-117.03 248.54,-111.03 248.54,-111.03 248.54,-90.47 248.54,-90.47 248.54,-84.47 254.54,-78.47 260.54,-78.47"/>
<text text-anchor="middle" x="277.94" y="-95.33" font-family="Arial" font-size="14.00" fill="white">1001</text>
</g>
<!-- basic_cc@jrdneva.ev.com&#45;&gt;testing@jrdneva.ev.com -->
<g id="edge4" class="edge">
<title>basic_cc@jrdneva.ev.com&#45;&gt;testing@jrdneva.ev.com</title>
<path fill="none" stroke="black" d="M307.78,-104.19C331.09,-107.92 364.11,-115.42 389.67,-130 396.83,-134.08 403.67,-139.55 409.8,-145.28"/>
<polygon fill="black" stroke="black" points="407.06,-147.49 416.6,-152.08 412.01,-142.54 407.06,-147.49"/>
<text text-anchor="middle" x="371.29" y="-132.2" font-family="Arial" font-size="14.00">OF</text>
</g>
<!-- basic_aa@jrdneva.ev.com&#45;&gt;JRDNEVA104@jrdneva.ev.com -->
<g id="edge8" class="edge">
<title>basic_aa@jrdneva.ev.com&#45;&gt;JRDNEVA104@jrdneva.ev.com</title>
<path fill="none" stroke="black" d="M173.31,-162.74C194.11,-173.58 220.1,-187.12 240.84,-197.94"/>
<polygon fill="black" stroke="black" points="239.03,-200.94 249.52,-202.46 242.26,-194.73 239.03,-200.94"/>
<text text-anchor="middle" x="199.21" y="-180.2" font-family="Arial" font-size="14.00">2</text>
</g>
<!-- basic_aa@jrdneva.ev.com&#45;&gt;testing@jrdneva.ev.com -->
<g id="edge7" class="edge">
<title>basic_aa@jrdneva.ev.com&#45;&gt;testing@jrdneva.ev.com</title>
<path fill="none" stroke="black" d="M177.54,-148.1C234.82,-154.23 338.63,-165.33 395.73,-171.44"/>
<polygon fill="black" stroke="black" points="395.36,-174.92 405.67,-172.5 396.1,-167.96 395.36,-174.92"/>
<text text-anchor="middle" x="277.94" y="-166.2" font-family="Arial" font-size="14.00">1</text>
</g>
<!-- basic_aa@jrdneva.ev.com&#45;&gt;basic_cc@jrdneva.ev.com -->
<g id="edge6" class="edge">
<title>basic_aa@jrdneva.ev.com&#45;&gt;basic_cc@jrdneva.ev.com</title>
<path fill="none" stroke="black" d="M175.89,-131.77C195.11,-125.87 218.23,-118.77 237.5,-112.86"/>
<polygon fill="black" stroke="black" points="238.37,-116.25 246.9,-109.97 236.31,-109.56 238.37,-116.25"/>
<text text-anchor="middle" x="199.21" y="-127.2" font-family="Arial" font-size="14.00">0</text>
</g>
<!-- 0123456789 -->
<g id="node7" class="node">
<title>0123456789</title>
<ellipse fill="none" stroke="black" cx="277.94" cy="-41.75" rx="56.98" ry="18"/>
<text text-anchor="middle" x="277.94" y="-36.7" font-family="Times,serif" font-size="14.00">0123456789</text>
</g>
<!-- basic_aa@jrdneva.ev.com&#45;&gt;0123456789 -->
<g id="edge9" class="edge">
<title>basic_aa@jrdneva.ev.com&#45;&gt;0123456789</title>
<path fill="none" stroke="black" d="M165.56,-114.51C181.09,-99.66 201.11,-82 220.96,-68.75 224.69,-66.26 228.68,-63.87 232.75,-61.6"/>
<polygon fill="black" stroke="black" points="234.37,-64.71 241.6,-56.97 231.12,-58.51 234.37,-64.71"/>
<text text-anchor="middle" x="199.21" y="-90.2" font-family="Arial" font-size="14.00">3</text>
</g>
</g>
</svg>
