<svg width="1920" height="1080" viewBox="0 0 1920 1080" fill="none" xmlns="http://www.w3.org/2000/svg">
<rect width="1920" height="1080" fill="#E3FE97"/>
<circle cx="458" cy="540" r="182" fill="#1C3A3A"/>
<path d="M446.693 432.811C446.693 432.542 446.802 432.283 446.996 432.095L468.323 411.328C468.957 410.711 470.021 411.16 470.021 412.044V646.627C470.021 646.892 469.915 647.147 469.727 647.334L448.4 668.621C447.77 669.25 446.693 668.803 446.693 667.913V432.811Z" fill="#E3FE97"/>
<path d="M496.285 500.955C496.285 500.685 496.394 500.427 496.588 500.238L517.915 479.471C518.549 478.854 519.613 479.303 519.613 480.188V551.794C519.613 552.059 519.507 552.314 519.319 552.501L497.992 573.788C497.361 574.417 496.285 573.97 496.285 573.08V500.955Z" fill="#E3FE97"/>
<path d="M420.283 500.955C420.283 500.685 420.174 500.427 419.981 500.238L398.653 479.471C398.019 478.854 396.955 479.303 396.955 480.188V551.794C396.955 552.059 397.061 552.314 397.249 552.501L418.577 573.788C419.207 574.417 420.283 573.97 420.283 573.08V500.955Z" fill="#E3FE97"/>
<path d="M815.1 509V439H838.8C844.133 439 848.533 439.933 852 441.8C855.467 443.6 858.033 446.1 859.7 449.3C861.367 452.5 862.2 456.167 862.2 460.3C862.2 464.433 861.367 468.1 859.7 471.3C858.033 474.5 855.467 477.033 852 478.9C848.533 480.7 844.133 481.6 838.8 481.6H825.7V509H815.1ZM825.7 472.1H838.3C842.833 472.1 846.133 471.033 848.2 468.9C850.333 466.767 851.4 463.9 851.4 460.3C851.4 456.767 850.333 453.933 848.2 451.8C846.133 449.6 842.833 448.5 838.3 448.5H825.7V472.1ZM897.961 510.2C893.228 510.2 888.994 509.133 885.261 507C881.528 504.867 878.594 501.867 876.461 498C874.328 494.067 873.261 489.467 873.261 484.2C873.261 478.933 874.328 474.367 876.461 470.5C878.594 466.567 881.528 463.533 885.261 461.4C888.994 459.267 893.261 458.2 898.061 458.2C902.861 458.2 907.094 459.267 910.761 461.4C914.494 463.533 917.394 466.567 919.461 470.5C921.594 474.367 922.661 478.933 922.661 484.2C922.661 489.467 921.594 494.067 919.461 498C917.328 501.867 914.394 504.867 910.661 507C906.994 509.133 902.761 510.2 897.961 510.2ZM897.961 500.1C900.494 500.1 902.828 499.533 904.961 498.4C907.094 497.267 908.794 495.533 910.061 493.2C911.394 490.8 912.061 487.8 912.061 484.2C912.061 480.533 911.394 477.533 910.061 475.2C908.794 472.867 907.094 471.133 904.961 470C902.894 468.867 900.594 468.3 898.061 468.3C895.528 468.3 893.194 468.867 891.061 470C888.928 471.133 887.194 472.867 885.861 475.2C884.594 477.533 883.961 480.533 883.961 484.2C883.961 489.667 885.328 493.7 888.061 496.3C890.861 498.833 894.161 500.1 897.961 500.1ZM939.522 509L928.722 459.4H939.122L945.122 494.2L952.222 459.4H963.622L970.722 494.2L976.722 459.4H987.122L976.322 509H965.422L957.922 473.2L950.422 509H939.522ZM1018.48 510.2C1013.68 510.2 1009.45 509.133 1005.78 507C1002.12 504.8 999.249 501.767 997.183 497.9C995.116 494.033 994.083 489.533 994.083 484.4C994.083 479.2 995.083 474.633 997.083 470.7C999.149 466.767 1002.02 463.7 1005.68 461.5C1009.42 459.3 1013.72 458.2 1018.58 458.2C1023.38 458.2 1027.52 459.3 1030.98 461.5C1034.45 463.633 1037.12 466.5 1038.98 470.1C1040.92 473.7 1041.88 477.667 1041.88 482C1041.88 482.667 1041.88 483.4 1041.88 484.2C1041.88 484.933 1041.85 485.767 1041.78 486.7H1004.48C1004.82 491.3 1006.32 494.8 1008.98 497.2C1011.65 499.533 1014.78 500.7 1018.38 500.7C1021.52 500.7 1023.98 500.067 1025.78 498.8C1027.65 497.467 1029.02 495.667 1029.88 493.4H1040.58C1039.38 498.133 1036.88 502.133 1033.08 505.4C1029.28 508.6 1024.42 510.2 1018.48 510.2ZM1018.48 467.4C1015.22 467.4 1012.32 468.4 1009.78 470.4C1007.25 472.333 1005.62 475.067 1004.88 478.6H1031.28C1031.02 475.267 1029.72 472.567 1027.38 470.5C1025.05 468.433 1022.08 467.4 1018.48 467.4ZM1055.54 509V499.8H1067.64V471.9C1067.64 469.7 1066.58 468.6 1064.44 468.6H1056.54V459.4H1068.44C1071.18 459.4 1073.41 460.2 1075.14 461.8C1076.88 463.333 1077.74 465.5 1077.74 468.3V469.5H1078.24C1078.98 465.767 1080.54 462.967 1082.94 461.1C1085.41 459.167 1088.98 458.2 1093.64 458.2H1101.34V469.4H1090.54C1086.61 469.4 1083.58 470.767 1081.44 473.5C1079.31 476.233 1078.24 479.5 1078.24 483.3V499.8H1093.64V509H1055.54ZM1138.4 510.2C1133.6 510.2 1129.37 509.133 1125.7 507C1122.04 504.8 1119.17 501.767 1117.1 497.9C1115.04 494.033 1114 489.533 1114 484.4C1114 479.2 1115 474.633 1117 470.7C1119.07 466.767 1121.94 463.7 1125.6 461.5C1129.34 459.3 1133.64 458.2 1138.5 458.2C1143.3 458.2 1147.44 459.3 1150.9 461.5C1154.37 463.633 1157.04 466.5 1158.9 470.1C1160.84 473.7 1161.8 477.667 1161.8 482C1161.8 482.667 1161.8 483.4 1161.8 484.2C1161.8 484.933 1161.77 485.767 1161.7 486.7H1124.4C1124.74 491.3 1126.24 494.8 1128.9 497.2C1131.57 499.533 1134.7 500.7 1138.3 500.7C1141.44 500.7 1143.9 500.067 1145.7 498.8C1147.57 497.467 1148.94 495.667 1149.8 493.4H1160.5C1159.3 498.133 1156.8 502.133 1153 505.4C1149.2 508.6 1144.34 510.2 1138.4 510.2ZM1138.4 467.4C1135.14 467.4 1132.24 468.4 1129.7 470.4C1127.17 472.333 1125.54 475.067 1124.8 478.6H1151.2C1150.94 475.267 1149.64 472.567 1147.3 470.5C1144.97 468.433 1142 467.4 1138.4 467.4ZM1195.07 510.2C1190.93 510.2 1187.23 509.233 1183.97 507.3C1180.7 505.3 1178.1 502.367 1176.17 498.5C1174.3 494.633 1173.37 489.867 1173.37 484.2C1173.37 478.533 1174.33 473.767 1176.27 469.9C1178.2 466.033 1180.8 463.133 1184.07 461.2C1187.4 459.2 1191.1 458.2 1195.17 458.2C1198.97 458.2 1202.1 458.933 1204.57 460.4C1207.03 461.8 1208.87 463.6 1210.07 465.8V437H1220.67V509H1211.57L1210.67 501.7H1210.07C1208.73 504.3 1206.83 506.367 1204.37 507.9C1201.97 509.433 1198.87 510.2 1195.07 510.2ZM1197.27 500.1C1201.07 500.1 1204.2 498.767 1206.67 496.1C1209.2 493.433 1210.47 489.467 1210.47 484.2C1210.47 478.867 1209.2 474.9 1206.67 472.3C1204.2 469.633 1201.07 468.3 1197.27 468.3C1193.47 468.3 1190.3 469.633 1187.77 472.3C1185.3 474.967 1184.07 478.967 1184.07 484.3C1184.07 489.567 1185.3 493.533 1187.77 496.2C1190.3 498.8 1193.47 500.1 1197.27 500.1ZM1320.39 510.2C1316.72 510.2 1313.62 509.467 1311.09 508C1308.62 506.467 1306.72 504.367 1305.39 501.7H1304.79L1303.89 509H1294.79V437H1305.39V465.8C1306.59 463.8 1308.49 462.033 1311.09 460.5C1313.69 458.967 1316.79 458.2 1320.39 458.2C1324.52 458.2 1328.22 459.2 1331.49 461.2C1334.75 463.133 1337.32 466.033 1339.19 469.9C1341.12 473.767 1342.09 478.533 1342.09 484.2C1342.09 489.867 1341.12 494.633 1339.19 498.5C1337.32 502.367 1334.75 505.3 1331.49 507.3C1328.22 509.233 1324.52 510.2 1320.39 510.2ZM1318.19 500.1C1321.99 500.1 1325.12 498.8 1327.59 496.2C1330.12 493.533 1331.39 489.567 1331.39 484.3C1331.39 478.967 1330.12 474.967 1327.59 472.3C1325.12 469.633 1321.99 468.3 1318.19 468.3C1314.39 468.3 1311.22 469.633 1308.69 472.3C1306.22 474.9 1304.99 478.867 1304.99 484.2C1304.99 489.467 1306.22 493.433 1308.69 496.1C1311.22 498.767 1314.39 500.1 1318.19 500.1ZM1361.95 531L1373.75 504.9H1370.85L1351.55 459.4H1363.05L1377.85 495.7L1393.55 459.4H1404.65L1373.15 531H1361.95Z" fill="black"/>
<path d="M1094.19 1043V1021.4H1097.37V1030.34C1097.77 1029.6 1098.41 1028.99 1099.29 1028.51C1100.17 1028.01 1101.16 1027.76 1102.26 1027.76C1104.1 1027.76 1105.5 1028.32 1106.46 1029.44C1107.42 1030.54 1107.9 1032.13 1107.9 1034.21V1043H1104.72V1034.66C1104.72 1033.42 1104.42 1032.46 1103.82 1031.78C1103.22 1031.1 1102.39 1030.76 1101.33 1030.76C1100.23 1030.76 1099.29 1031.13 1098.51 1031.87C1097.75 1032.61 1097.37 1033.68 1097.37 1035.08V1043H1094.19ZM1120.61 1043C1119.15 1043 1117.99 1042.65 1117.13 1041.95C1116.27 1041.23 1115.84 1039.96 1115.84 1038.14V1030.82H1112.09V1028.12H1114.31C1115.33 1028.12 1115.93 1027.62 1116.11 1026.62L1116.56 1024.22H1119.02V1028.12H1124.9V1030.82H1119.02V1038.08C1119.02 1038.86 1119.19 1039.41 1119.53 1039.73C1119.89 1040.03 1120.5 1040.18 1121.36 1040.18H1124.84V1043H1120.61ZM1138.6 1043C1137.14 1043 1135.98 1042.65 1135.12 1041.95C1134.26 1041.23 1133.83 1039.96 1133.83 1038.14V1030.82H1130.08V1028.12H1132.3C1133.32 1028.12 1133.92 1027.62 1134.1 1026.62L1134.55 1024.22H1137.01V1028.12H1142.89V1030.82H1137.01V1038.08C1137.01 1038.86 1137.18 1039.41 1137.52 1039.73C1137.88 1040.03 1138.49 1040.18 1139.35 1040.18H1142.83V1043H1138.6ZM1148.03 1049.6V1028.12H1150.79L1151.03 1030.4H1151.21C1151.61 1029.66 1152.21 1029.04 1153.01 1028.54C1153.83 1028.02 1154.8 1027.76 1155.92 1027.76C1157.08 1027.76 1158.14 1028.06 1159.1 1028.66C1160.06 1029.24 1160.82 1030.11 1161.38 1031.27C1161.96 1032.41 1162.25 1033.84 1162.25 1035.56C1162.25 1037.26 1161.95 1038.69 1161.35 1039.85C1160.77 1041.01 1159.98 1041.89 1158.98 1042.49C1157.98 1043.07 1156.86 1043.36 1155.62 1043.36C1154.52 1043.36 1153.6 1043.14 1152.86 1042.7C1152.12 1042.26 1151.57 1041.76 1151.21 1041.2V1049.6H1148.03ZM1155.08 1040.33C1156.2 1040.33 1157.13 1039.93 1157.87 1039.13C1158.63 1038.33 1159.01 1037.13 1159.01 1035.53C1159.01 1033.93 1158.63 1032.74 1157.87 1031.96C1157.13 1031.18 1156.2 1030.79 1155.08 1030.79C1153.94 1030.79 1152.99 1031.19 1152.23 1031.99C1151.49 1032.77 1151.12 1033.96 1151.12 1035.56C1151.12 1037.14 1151.49 1038.33 1152.23 1039.13C1152.99 1039.93 1153.94 1040.33 1155.08 1040.33ZM1173.07 1043.36C1171.11 1043.36 1169.55 1042.9 1168.39 1041.98C1167.23 1041.06 1166.57 1039.84 1166.41 1038.32H1169.68C1169.8 1039.02 1170.15 1039.59 1170.73 1040.03C1171.33 1040.47 1172.12 1040.69 1173.1 1040.69C1174.04 1040.69 1174.76 1040.5 1175.26 1040.12C1175.78 1039.72 1176.04 1039.26 1176.04 1038.74C1176.04 1037.98 1175.73 1037.46 1175.11 1037.18C1174.51 1036.9 1173.62 1036.69 1172.44 1036.55C1171.42 1036.43 1170.49 1036.2 1169.65 1035.86C1168.83 1035.5 1168.18 1035.02 1167.7 1034.42C1167.22 1033.8 1166.98 1033.03 1166.98 1032.11C1166.98 1030.81 1167.49 1029.76 1168.51 1028.96C1169.53 1028.16 1170.95 1027.76 1172.77 1027.76C1174.59 1027.76 1176 1028.17 1177 1028.99C1178 1029.81 1178.58 1030.93 1178.74 1032.35H1175.68C1175.6 1031.75 1175.29 1031.28 1174.75 1030.94C1174.21 1030.58 1173.54 1030.4 1172.74 1030.4C1171.92 1030.4 1171.27 1030.56 1170.79 1030.88C1170.31 1031.18 1170.07 1031.58 1170.07 1032.08C1170.07 1033.16 1171.23 1033.82 1173.55 1034.06C1174.65 1034.18 1175.63 1034.39 1176.49 1034.69C1177.35 1034.97 1178.03 1035.42 1178.53 1036.04C1179.03 1036.64 1179.28 1037.49 1179.28 1038.59C1179.3 1039.49 1179.04 1040.3 1178.5 1041.02C1177.98 1041.74 1177.25 1042.31 1176.31 1042.73C1175.39 1043.15 1174.31 1043.36 1173.07 1043.36ZM1190.94 1043.18C1190.2 1043.18 1189.57 1042.94 1189.05 1042.46C1188.53 1041.96 1188.27 1041.36 1188.27 1040.66C1188.27 1039.96 1188.53 1039.37 1189.05 1038.89C1189.57 1038.41 1190.2 1038.17 1190.94 1038.17C1191.7 1038.17 1192.33 1038.41 1192.83 1038.89C1193.35 1039.37 1193.61 1039.96 1193.61 1040.66C1193.61 1041.36 1193.35 1041.96 1192.83 1042.46C1192.33 1042.94 1191.7 1043.18 1190.94 1043.18ZM1190.94 1031.54C1190.2 1031.54 1189.57 1031.3 1189.05 1030.82C1188.53 1030.32 1188.27 1029.72 1188.27 1029.02C1188.27 1028.32 1188.53 1027.73 1189.05 1027.25C1189.57 1026.77 1190.2 1026.53 1190.94 1026.53C1191.7 1026.53 1192.33 1026.77 1192.83 1027.25C1193.35 1027.73 1193.61 1028.32 1193.61 1029.02C1193.61 1029.72 1193.35 1030.32 1192.83 1030.82C1192.33 1031.3 1191.7 1031.54 1190.94 1031.54ZM1202.12 1045.7L1212.5 1020.2H1215.74L1205.33 1045.7H1202.12ZM1220.11 1045.7L1230.49 1020.2H1233.73L1223.32 1045.7H1220.11ZM1244.1 1043.36C1242.86 1043.36 1241.75 1043.07 1240.77 1042.49C1239.79 1041.89 1239.01 1041.01 1238.43 1039.85C1237.87 1038.69 1237.59 1037.26 1237.59 1035.56C1237.59 1033.86 1237.88 1032.43 1238.46 1031.27C1239.04 1030.11 1239.82 1029.24 1240.8 1028.66C1241.8 1028.06 1242.91 1027.76 1244.13 1027.76C1245.27 1027.76 1246.21 1027.98 1246.95 1028.42C1247.69 1028.84 1248.24 1029.38 1248.6 1030.04V1021.4H1251.78V1043H1249.05L1248.78 1040.81H1248.6C1248.2 1041.59 1247.63 1042.21 1246.89 1042.67C1246.17 1043.13 1245.24 1043.36 1244.1 1043.36ZM1244.76 1040.33C1245.9 1040.33 1246.84 1039.93 1247.58 1039.13C1248.34 1038.33 1248.72 1037.14 1248.72 1035.56C1248.72 1033.96 1248.34 1032.77 1247.58 1031.99C1246.84 1031.19 1245.9 1030.79 1244.76 1030.79C1243.62 1030.79 1242.67 1031.19 1241.91 1031.99C1241.17 1032.79 1240.8 1033.99 1240.8 1035.59C1240.8 1037.17 1241.17 1038.36 1241.91 1039.16C1242.67 1039.94 1243.62 1040.33 1244.76 1040.33ZM1262.89 1043.36C1261.47 1043.36 1260.2 1043.04 1259.08 1042.4C1257.96 1041.76 1257.08 1040.86 1256.44 1039.7C1255.8 1038.52 1255.48 1037.14 1255.48 1035.56C1255.48 1033.98 1255.8 1032.61 1256.44 1031.45C1257.08 1030.27 1257.96 1029.36 1259.08 1028.72C1260.2 1028.08 1261.48 1027.76 1262.92 1027.76C1264.36 1027.76 1265.63 1028.08 1266.73 1028.72C1267.85 1029.36 1268.72 1030.27 1269.34 1031.45C1269.98 1032.61 1270.3 1033.98 1270.3 1035.56C1270.3 1037.14 1269.98 1038.52 1269.34 1039.7C1268.7 1040.86 1267.82 1041.76 1266.7 1042.4C1265.6 1043.04 1264.33 1043.36 1262.89 1043.36ZM1262.89 1040.33C1263.65 1040.33 1264.35 1040.16 1264.99 1039.82C1265.63 1039.48 1266.14 1038.96 1266.52 1038.26C1266.92 1037.54 1267.12 1036.64 1267.12 1035.56C1267.12 1034.46 1266.92 1033.56 1266.52 1032.86C1266.14 1032.16 1265.63 1031.64 1264.99 1031.3C1264.37 1030.96 1263.68 1030.79 1262.92 1030.79C1262.16 1030.79 1261.46 1030.96 1260.82 1031.3C1260.18 1031.64 1259.66 1032.16 1259.26 1032.86C1258.88 1033.56 1258.69 1034.46 1258.69 1035.56C1258.69 1037.2 1259.1 1038.41 1259.92 1039.19C1260.76 1039.95 1261.75 1040.33 1262.89 1040.33ZM1281.09 1043.36C1279.71 1043.36 1278.47 1043.04 1277.37 1042.4C1276.29 1041.76 1275.44 1040.86 1274.82 1039.7C1274.2 1038.52 1273.89 1037.14 1273.89 1035.56C1273.89 1033.98 1274.2 1032.61 1274.82 1031.45C1275.46 1030.29 1276.32 1029.39 1277.4 1028.75C1278.48 1028.09 1279.71 1027.76 1281.09 1027.76C1282.99 1027.76 1284.52 1028.24 1285.68 1029.2C1286.86 1030.14 1287.61 1031.44 1287.93 1033.1H1284.6C1284.4 1032.38 1283.99 1031.81 1283.37 1031.39C1282.77 1030.97 1282 1030.76 1281.06 1030.76C1280.38 1030.76 1279.73 1030.94 1279.11 1031.3C1278.51 1031.66 1278.02 1032.2 1277.64 1032.92C1277.28 1033.62 1277.1 1034.5 1277.1 1035.56C1277.1 1036.6 1277.28 1037.48 1277.64 1038.2C1278.02 1038.92 1278.51 1039.47 1279.11 1039.85C1279.73 1040.21 1280.38 1040.39 1281.06 1040.39C1282.02 1040.39 1282.79 1040.18 1283.37 1039.76C1283.95 1039.34 1284.36 1038.76 1284.6 1038.02H1287.93C1287.53 1039.66 1286.75 1040.96 1285.59 1041.92C1284.43 1042.88 1282.93 1043.36 1281.09 1043.36ZM1298.99 1043.36C1297.03 1043.36 1295.47 1042.9 1294.31 1041.98C1293.15 1041.06 1292.49 1039.84 1292.33 1038.32H1295.6C1295.72 1039.02 1296.07 1039.59 1296.65 1040.03C1297.25 1040.47 1298.04 1040.69 1299.02 1040.69C1299.96 1040.69 1300.68 1040.5 1301.18 1040.12C1301.7 1039.72 1301.96 1039.26 1301.96 1038.74C1301.96 1037.98 1301.65 1037.46 1301.03 1037.18C1300.43 1036.9 1299.54 1036.69 1298.36 1036.55C1297.34 1036.43 1296.41 1036.2 1295.57 1035.86C1294.75 1035.5 1294.1 1035.02 1293.62 1034.42C1293.14 1033.8 1292.9 1033.03 1292.9 1032.11C1292.9 1030.81 1293.41 1029.76 1294.43 1028.96C1295.45 1028.16 1296.87 1027.76 1298.69 1027.76C1300.51 1027.76 1301.92 1028.17 1302.92 1028.99C1303.92 1029.81 1304.5 1030.93 1304.66 1032.35H1301.6C1301.52 1031.75 1301.21 1031.28 1300.67 1030.94C1300.13 1030.58 1299.46 1030.4 1298.66 1030.4C1297.84 1030.4 1297.19 1030.56 1296.71 1030.88C1296.23 1031.18 1295.99 1031.58 1295.99 1032.08C1295.99 1033.16 1297.15 1033.82 1299.47 1034.06C1300.57 1034.18 1301.55 1034.39 1302.41 1034.69C1303.27 1034.97 1303.95 1035.42 1304.45 1036.04C1304.95 1036.64 1305.2 1037.49 1305.2 1038.59C1305.22 1039.49 1304.96 1040.3 1304.42 1041.02C1303.9 1041.74 1303.17 1042.31 1302.23 1042.73C1301.31 1043.15 1300.23 1043.36 1298.99 1043.36ZM1316.86 1043.18C1316.12 1043.18 1315.49 1042.94 1314.97 1042.46C1314.45 1041.96 1314.19 1041.36 1314.19 1040.66C1314.19 1039.96 1314.45 1039.37 1314.97 1038.89C1315.49 1038.41 1316.12 1038.17 1316.86 1038.17C1317.62 1038.17 1318.25 1038.41 1318.75 1038.89C1319.27 1039.37 1319.53 1039.96 1319.53 1040.66C1319.53 1041.36 1319.27 1041.96 1318.75 1042.46C1318.25 1042.94 1317.62 1043.18 1316.86 1043.18ZM1335.69 1025.84C1334.99 1025.84 1334.4 1025.62 1333.92 1025.18C1333.46 1024.72 1333.23 1024.16 1333.23 1023.5C1333.23 1022.84 1333.46 1022.29 1333.92 1021.85C1334.4 1021.41 1334.99 1021.19 1335.69 1021.19C1336.41 1021.19 1337 1021.41 1337.46 1021.85C1337.94 1022.29 1338.18 1022.84 1338.18 1023.5C1338.18 1024.16 1337.94 1024.72 1337.46 1025.18C1337 1025.62 1336.41 1025.84 1335.69 1025.84ZM1327.53 1049.6V1046.84H1333.41C1334.07 1046.84 1334.4 1046.51 1334.4 1045.85V1031.87C1334.4 1031.21 1334.07 1030.88 1333.41 1030.88H1329.75V1028.12H1334.01C1335.25 1028.12 1336.15 1028.41 1336.71 1028.99C1337.29 1029.55 1337.58 1030.45 1337.58 1031.69V1046.03C1337.58 1047.27 1337.29 1048.17 1336.71 1048.73C1336.15 1049.31 1335.25 1049.6 1334.01 1049.6H1327.53ZM1352.84 1043.36C1351.42 1043.36 1350.15 1043.04 1349.03 1042.4C1347.91 1041.76 1347.03 1040.86 1346.39 1039.7C1345.75 1038.52 1345.43 1037.14 1345.43 1035.56C1345.43 1033.98 1345.75 1032.61 1346.39 1031.45C1347.03 1030.27 1347.91 1029.36 1349.03 1028.72C1350.15 1028.08 1351.43 1027.76 1352.87 1027.76C1354.31 1027.76 1355.58 1028.08 1356.68 1028.72C1357.8 1029.36 1358.67 1030.27 1359.29 1031.45C1359.93 1032.61 1360.25 1033.98 1360.25 1035.56C1360.25 1037.14 1359.93 1038.52 1359.29 1039.7C1358.65 1040.86 1357.77 1041.76 1356.65 1042.4C1355.55 1043.04 1354.28 1043.36 1352.84 1043.36ZM1352.84 1040.33C1353.6 1040.33 1354.3 1040.16 1354.94 1039.82C1355.58 1039.48 1356.09 1038.96 1356.47 1038.26C1356.87 1037.54 1357.07 1036.64 1357.07 1035.56C1357.07 1034.46 1356.87 1033.56 1356.47 1032.86C1356.09 1032.16 1355.58 1031.64 1354.94 1031.3C1354.32 1030.96 1353.63 1030.79 1352.87 1030.79C1352.11 1030.79 1351.41 1030.96 1350.77 1031.3C1350.13 1031.64 1349.61 1032.16 1349.21 1032.86C1348.83 1033.56 1348.64 1034.46 1348.64 1035.56C1348.64 1037.2 1349.05 1038.41 1349.87 1039.19C1350.71 1039.95 1351.7 1040.33 1352.84 1040.33ZM1364.13 1043V1040.24H1367.76V1031.87C1367.76 1031.21 1367.44 1030.88 1366.8 1030.88H1364.43V1028.12H1368C1368.82 1028.12 1369.49 1028.36 1370.01 1028.84C1370.53 1029.3 1370.79 1029.95 1370.79 1030.79V1031.15H1370.94C1371.16 1030.03 1371.63 1029.19 1372.35 1028.63C1373.09 1028.05 1374.16 1027.76 1375.56 1027.76H1377.87V1031.12H1374.63C1373.45 1031.12 1372.54 1031.53 1371.9 1032.35C1371.26 1033.17 1370.94 1034.15 1370.94 1035.29V1040.24H1375.56V1043H1364.13ZM1388 1043.36C1386.76 1043.36 1385.65 1043.07 1384.67 1042.49C1383.69 1041.89 1382.91 1041.01 1382.33 1039.85C1381.77 1038.69 1381.49 1037.26 1381.49 1035.56C1381.49 1033.86 1381.78 1032.43 1382.36 1031.27C1382.94 1030.11 1383.72 1029.24 1384.7 1028.66C1385.7 1028.06 1386.81 1027.76 1388.03 1027.76C1389.17 1027.76 1390.11 1027.98 1390.85 1028.42C1391.59 1028.84 1392.14 1029.38 1392.5 1030.04V1021.4H1395.68V1043H1392.95L1392.68 1040.81H1392.5C1392.1 1041.59 1391.53 1042.21 1390.79 1042.67C1390.07 1043.13 1389.14 1043.36 1388 1043.36ZM1388.66 1040.33C1389.8 1040.33 1390.74 1039.93 1391.48 1039.13C1392.24 1038.33 1392.62 1037.14 1392.62 1035.56C1392.62 1033.96 1392.24 1032.77 1391.48 1031.99C1390.74 1031.19 1389.8 1030.79 1388.66 1030.79C1387.52 1030.79 1386.57 1031.19 1385.81 1031.99C1385.07 1032.79 1384.7 1033.99 1384.7 1035.59C1384.7 1037.17 1385.07 1038.36 1385.81 1039.16C1386.57 1039.94 1387.52 1040.33 1388.66 1040.33ZM1405.45 1043.36C1404.27 1043.36 1403.28 1043.16 1402.48 1042.76C1401.68 1042.34 1401.08 1041.79 1400.68 1041.11C1400.28 1040.41 1400.08 1039.65 1400.08 1038.83C1400.08 1037.37 1400.61 1036.23 1401.67 1035.41C1402.75 1034.59 1404.27 1034.18 1406.23 1034.18H1410.07V1033.85C1410.07 1031.61 1409.03 1030.49 1406.95 1030.49C1406.09 1030.49 1405.36 1030.68 1404.76 1031.06C1404.18 1031.42 1403.79 1032.01 1403.59 1032.83H1400.41C1400.57 1031.27 1401.24 1030.04 1402.42 1029.14C1403.62 1028.22 1405.13 1027.76 1406.95 1027.76C1409.15 1027.76 1410.75 1028.3 1411.75 1029.38C1412.75 1030.46 1413.25 1031.95 1413.25 1033.85V1043H1410.55L1410.28 1040.81H1410.07C1409.63 1041.51 1409.08 1042.11 1408.42 1042.61C1407.76 1043.11 1406.77 1043.36 1405.45 1043.36ZM1406.05 1040.69C1407.35 1040.69 1408.32 1040.3 1408.96 1039.52C1409.62 1038.72 1409.98 1037.71 1410.04 1036.49H1406.56C1405.42 1036.49 1404.61 1036.68 1404.13 1037.06C1403.67 1037.42 1403.44 1037.93 1403.44 1038.59C1403.44 1039.25 1403.67 1039.77 1404.13 1040.15C1404.61 1040.51 1405.25 1040.69 1406.05 1040.69ZM1418.13 1043V1028.12H1420.89L1421.16 1030.34H1421.31C1421.71 1029.62 1422.33 1029.01 1423.17 1028.51C1424.01 1028.01 1424.98 1027.76 1426.08 1027.76C1427.9 1027.76 1429.27 1028.31 1430.19 1029.41C1431.11 1030.51 1431.57 1032.13 1431.57 1034.27V1043H1428.39V1034.66C1428.39 1033.42 1428.13 1032.46 1427.61 1031.78C1427.09 1031.1 1426.27 1030.76 1425.15 1030.76C1424.05 1030.76 1423.13 1031.13 1422.39 1031.87C1421.67 1032.61 1421.31 1033.68 1421.31 1035.08V1043H1418.13ZM1437.62 1033.85V1031.15H1447.94V1033.85H1437.62ZM1453.84 1049.6V1028.12H1456.6L1456.84 1030.4H1457.02C1457.42 1029.66 1458.02 1029.04 1458.82 1028.54C1459.64 1028.02 1460.61 1027.76 1461.73 1027.76C1462.89 1027.76 1463.95 1028.06 1464.91 1028.66C1465.87 1029.24 1466.63 1030.11 1467.19 1031.27C1467.77 1032.41 1468.06 1033.84 1468.06 1035.56C1468.06 1037.26 1467.76 1038.69 1467.16 1039.85C1466.58 1041.01 1465.79 1041.89 1464.79 1042.49C1463.79 1043.07 1462.67 1043.36 1461.43 1043.36C1460.33 1043.36 1459.41 1043.14 1458.67 1042.7C1457.93 1042.26 1457.38 1041.76 1457.02 1041.2V1049.6H1453.84ZM1460.89 1040.33C1462.01 1040.33 1462.94 1039.93 1463.68 1039.13C1464.44 1038.33 1464.82 1037.13 1464.82 1035.53C1464.82 1033.93 1464.44 1032.74 1463.68 1031.96C1462.94 1031.18 1462.01 1030.79 1460.89 1030.79C1459.75 1030.79 1458.8 1031.19 1458.04 1031.99C1457.3 1032.77 1456.93 1033.96 1456.93 1035.56C1456.93 1037.14 1457.3 1038.33 1458.04 1039.13C1458.8 1039.93 1459.75 1040.33 1460.89 1040.33ZM1472.06 1043V1040.24H1475.69V1031.87C1475.69 1031.21 1475.37 1030.88 1474.73 1030.88H1472.36V1028.12H1475.93C1476.75 1028.12 1477.42 1028.36 1477.94 1028.84C1478.46 1029.3 1478.72 1029.95 1478.72 1030.79V1031.15H1478.87C1479.09 1030.03 1479.56 1029.19 1480.28 1028.63C1481.02 1028.05 1482.09 1027.76 1483.49 1027.76H1485.8V1031.12H1482.56C1481.38 1031.12 1480.47 1031.53 1479.83 1032.35C1479.19 1033.17 1478.87 1034.15 1478.87 1035.29V1040.24H1483.49V1043H1472.06ZM1496.92 1043.36C1495.48 1043.36 1494.21 1043.04 1493.11 1042.4C1492.01 1041.74 1491.15 1040.83 1490.53 1039.67C1489.91 1038.51 1489.6 1037.16 1489.6 1035.62C1489.6 1034.06 1489.9 1032.69 1490.5 1031.51C1491.12 1030.33 1491.98 1029.41 1493.08 1028.75C1494.2 1028.09 1495.49 1027.76 1496.95 1027.76C1498.39 1027.76 1499.63 1028.09 1500.67 1028.75C1501.71 1029.39 1502.51 1030.25 1503.07 1031.33C1503.65 1032.41 1503.94 1033.6 1503.94 1034.9C1503.94 1035.1 1503.94 1035.32 1503.94 1035.56C1503.94 1035.78 1503.93 1036.03 1503.91 1036.31H1492.72C1492.82 1037.69 1493.27 1038.74 1494.07 1039.46C1494.87 1040.16 1495.81 1040.51 1496.89 1040.51C1497.83 1040.51 1498.57 1040.32 1499.11 1039.94C1499.67 1039.54 1500.08 1039 1500.34 1038.32H1503.55C1503.19 1039.74 1502.44 1040.94 1501.3 1041.92C1500.16 1042.88 1498.7 1043.36 1496.92 1043.36ZM1496.92 1030.52C1495.94 1030.52 1495.07 1030.82 1494.31 1031.42C1493.55 1032 1493.06 1032.82 1492.84 1033.88H1500.76C1500.68 1032.88 1500.29 1032.07 1499.59 1031.45C1498.89 1030.83 1498 1030.52 1496.92 1030.52ZM1514.85 1043.36C1512.89 1043.36 1511.33 1042.9 1510.17 1041.98C1509.01 1041.06 1508.35 1039.84 1508.19 1038.32H1511.46C1511.58 1039.02 1511.93 1039.59 1512.51 1040.03C1513.11 1040.47 1513.9 1040.69 1514.88 1040.69C1515.82 1040.69 1516.54 1040.5 1517.04 1040.12C1517.56 1039.72 1517.82 1039.26 1517.82 1038.74C1517.82 1037.98 1517.51 1037.46 1516.89 1037.18C1516.29 1036.9 1515.4 1036.69 1514.22 1036.55C1513.2 1036.43 1512.27 1036.2 1511.43 1035.86C1510.61 1035.5 1509.96 1035.02 1509.48 1034.42C1509 1033.8 1508.76 1033.03 1508.76 1032.11C1508.76 1030.81 1509.27 1029.76 1510.29 1028.96C1511.31 1028.16 1512.73 1027.76 1514.55 1027.76C1516.37 1027.76 1517.78 1028.17 1518.78 1028.99C1519.78 1029.81 1520.36 1030.93 1520.52 1032.35H1517.46C1517.38 1031.75 1517.07 1031.28 1516.53 1030.94C1515.99 1030.58 1515.32 1030.4 1514.52 1030.4C1513.7 1030.4 1513.05 1030.56 1512.57 1030.88C1512.09 1031.18 1511.85 1031.58 1511.85 1032.08C1511.85 1033.16 1513.01 1033.82 1515.33 1034.06C1516.43 1034.18 1517.41 1034.39 1518.27 1034.69C1519.13 1034.97 1519.81 1035.42 1520.31 1036.04C1520.81 1036.64 1521.06 1037.49 1521.06 1038.59C1521.08 1039.49 1520.82 1040.3 1520.28 1041.02C1519.76 1041.74 1519.03 1042.31 1518.09 1042.73C1517.17 1043.15 1516.09 1043.36 1514.85 1043.36ZM1532.93 1043.36C1531.55 1043.36 1530.31 1043.04 1529.21 1042.4C1528.13 1041.76 1527.28 1040.86 1526.66 1039.7C1526.04 1038.52 1525.73 1037.14 1525.73 1035.56C1525.73 1033.98 1526.04 1032.61 1526.66 1031.45C1527.3 1030.29 1528.16 1029.39 1529.24 1028.75C1530.32 1028.09 1531.55 1027.76 1532.93 1027.76C1534.83 1027.76 1536.36 1028.24 1537.52 1029.2C1538.7 1030.14 1539.45 1031.44 1539.77 1033.1H1536.44C1536.24 1032.38 1535.83 1031.81 1535.21 1031.39C1534.61 1030.97 1533.84 1030.76 1532.9 1030.76C1532.22 1030.76 1531.57 1030.94 1530.95 1031.3C1530.35 1031.66 1529.86 1032.2 1529.48 1032.92C1529.12 1033.62 1528.94 1034.5 1528.94 1035.56C1528.94 1036.6 1529.12 1037.48 1529.48 1038.2C1529.86 1038.92 1530.35 1039.47 1530.95 1039.85C1531.57 1040.21 1532.22 1040.39 1532.9 1040.39C1533.86 1040.39 1534.63 1040.18 1535.21 1039.76C1535.79 1039.34 1536.2 1038.76 1536.44 1038.02H1539.77C1539.37 1039.66 1538.59 1040.96 1537.43 1041.92C1536.27 1042.88 1534.77 1043.36 1532.93 1043.36ZM1550.71 1043.36C1549.29 1043.36 1548.02 1043.04 1546.9 1042.4C1545.78 1041.76 1544.9 1040.86 1544.26 1039.7C1543.62 1038.52 1543.3 1037.14 1543.3 1035.56C1543.3 1033.98 1543.62 1032.61 1544.26 1031.45C1544.9 1030.27 1545.78 1029.36 1546.9 1028.72C1548.02 1028.08 1549.3 1027.76 1550.74 1027.76C1552.18 1027.76 1553.45 1028.08 1554.55 1028.72C1555.67 1029.36 1556.54 1030.27 1557.16 1031.45C1557.8 1032.61 1558.12 1033.98 1558.12 1035.56C1558.12 1037.14 1557.8 1038.52 1557.16 1039.7C1556.52 1040.86 1555.64 1041.76 1554.52 1042.4C1553.42 1043.04 1552.15 1043.36 1550.71 1043.36ZM1550.71 1040.33C1551.47 1040.33 1552.17 1040.16 1552.81 1039.82C1553.45 1039.48 1553.96 1038.96 1554.34 1038.26C1554.74 1037.54 1554.94 1036.64 1554.94 1035.56C1554.94 1034.46 1554.74 1033.56 1554.34 1032.86C1553.96 1032.16 1553.45 1031.64 1552.81 1031.3C1552.19 1030.96 1551.5 1030.79 1550.74 1030.79C1549.98 1030.79 1549.28 1030.96 1548.64 1031.3C1548 1031.64 1547.48 1032.16 1547.08 1032.86C1546.7 1033.56 1546.51 1034.46 1546.51 1035.56C1546.51 1037.2 1546.92 1038.41 1547.74 1039.19C1548.58 1039.95 1549.57 1040.33 1550.71 1040.33ZM1570.32 1043C1568.86 1043 1567.7 1042.65 1566.84 1041.95C1565.98 1041.23 1565.55 1039.96 1565.55 1038.14V1030.82H1561.8V1028.12H1564.02C1565.04 1028.12 1565.64 1027.62 1565.82 1026.62L1566.27 1024.22H1568.73V1028.12H1574.61V1030.82H1568.73V1038.08C1568.73 1038.86 1568.9 1039.41 1569.24 1039.73C1569.6 1040.03 1570.21 1040.18 1571.07 1040.18H1574.55V1043H1570.32ZM1588.3 1043C1586.84 1043 1585.68 1042.65 1584.82 1041.95C1583.96 1041.23 1583.53 1039.96 1583.53 1038.14V1030.82H1579.78V1028.12H1582C1583.02 1028.12 1583.62 1027.62 1583.8 1026.62L1584.25 1024.22H1586.71V1028.12H1592.59V1030.82H1586.71V1038.08C1586.71 1038.86 1586.88 1039.41 1587.22 1039.73C1587.58 1040.03 1588.19 1040.18 1589.05 1040.18H1592.53V1043H1588.3ZM1604.67 1043.18C1603.93 1043.18 1603.3 1042.94 1602.78 1042.46C1602.26 1041.96 1602 1041.36 1602 1040.66C1602 1039.96 1602.26 1039.37 1602.78 1038.89C1603.3 1038.41 1603.93 1038.17 1604.67 1038.17C1605.43 1038.17 1606.06 1038.41 1606.56 1038.89C1607.08 1039.37 1607.34 1039.96 1607.34 1040.66C1607.34 1041.36 1607.08 1041.96 1606.56 1042.46C1606.06 1042.94 1605.43 1043.18 1604.67 1043.18ZM1622.87 1043.36C1621.49 1043.36 1620.25 1043.04 1619.15 1042.4C1618.07 1041.76 1617.22 1040.86 1616.6 1039.7C1615.98 1038.52 1615.67 1037.14 1615.67 1035.56C1615.67 1033.98 1615.98 1032.61 1616.6 1031.45C1617.24 1030.29 1618.1 1029.39 1619.18 1028.75C1620.26 1028.09 1621.49 1027.76 1622.87 1027.76C1624.77 1027.76 1626.3 1028.24 1627.46 1029.2C1628.64 1030.14 1629.39 1031.44 1629.71 1033.1H1626.38C1626.18 1032.38 1625.77 1031.81 1625.15 1031.39C1624.55 1030.97 1623.78 1030.76 1622.84 1030.76C1622.16 1030.76 1621.51 1030.94 1620.89 1031.3C1620.29 1031.66 1619.8 1032.2 1619.42 1032.92C1619.06 1033.62 1618.88 1034.5 1618.88 1035.56C1618.88 1036.6 1619.06 1037.48 1619.42 1038.2C1619.8 1038.92 1620.29 1039.47 1620.89 1039.85C1621.51 1040.21 1622.16 1040.39 1622.84 1040.39C1623.8 1040.39 1624.57 1040.18 1625.15 1039.76C1625.73 1039.34 1626.14 1038.76 1626.38 1038.02H1629.71C1629.31 1039.66 1628.53 1040.96 1627.37 1041.92C1626.21 1042.88 1624.71 1043.36 1622.87 1043.36ZM1640.65 1043.36C1639.23 1043.36 1637.96 1043.04 1636.84 1042.4C1635.72 1041.76 1634.84 1040.86 1634.2 1039.7C1633.56 1038.52 1633.24 1037.14 1633.24 1035.56C1633.24 1033.98 1633.56 1032.61 1634.2 1031.45C1634.84 1030.27 1635.72 1029.36 1636.84 1028.72C1637.96 1028.08 1639.24 1027.76 1640.68 1027.76C1642.12 1027.76 1643.39 1028.08 1644.49 1028.72C1645.61 1029.36 1646.48 1030.27 1647.1 1031.45C1647.74 1032.61 1648.06 1033.98 1648.06 1035.56C1648.06 1037.14 1647.74 1038.52 1647.1 1039.7C1646.46 1040.86 1645.58 1041.76 1644.46 1042.4C1643.36 1043.04 1642.09 1043.36 1640.65 1043.36ZM1640.65 1040.33C1641.41 1040.33 1642.11 1040.16 1642.75 1039.82C1643.39 1039.48 1643.9 1038.96 1644.28 1038.26C1644.68 1037.54 1644.88 1036.64 1644.88 1035.56C1644.88 1034.46 1644.68 1033.56 1644.28 1032.86C1643.9 1032.16 1643.39 1031.64 1642.75 1031.3C1642.13 1030.96 1641.44 1030.79 1640.68 1030.79C1639.92 1030.79 1639.22 1030.96 1638.58 1031.3C1637.94 1031.64 1637.42 1032.16 1637.02 1032.86C1636.64 1033.56 1636.45 1034.46 1636.45 1035.56C1636.45 1037.2 1636.86 1038.41 1637.68 1039.19C1638.52 1039.95 1639.51 1040.33 1640.65 1040.33ZM1650.39 1043V1028.12H1653.03L1653.3 1029.86H1653.45C1653.71 1029.24 1654.11 1028.74 1654.65 1028.36C1655.19 1027.96 1655.83 1027.76 1656.57 1027.76C1657.29 1027.76 1657.92 1027.94 1658.46 1028.3C1659 1028.66 1659.4 1029.18 1659.66 1029.86H1659.78C1660.04 1029.26 1660.45 1028.76 1661.01 1028.36C1661.57 1027.96 1662.26 1027.76 1663.08 1027.76C1664.18 1027.76 1665.01 1028.12 1665.57 1028.84C1666.15 1029.56 1666.44 1030.57 1666.44 1031.87V1043H1663.38V1032.5C1663.38 1031.9 1663.25 1031.43 1662.99 1031.09C1662.75 1030.73 1662.36 1030.55 1661.82 1030.55C1661.28 1030.55 1660.83 1030.76 1660.47 1031.18C1660.13 1031.6 1659.96 1032.19 1659.96 1032.95V1043H1656.87V1032.5C1656.87 1031.9 1656.75 1031.43 1656.51 1031.09C1656.27 1030.73 1655.88 1030.55 1655.34 1030.55C1654.8 1030.55 1654.35 1030.76 1653.99 1031.18C1653.63 1031.6 1653.45 1032.19 1653.45 1032.95V1043H1650.39ZM1669.82 1045.7L1680.2 1020.2H1683.44L1673.03 1045.7H1669.82ZM1694.61 1043.36C1693.19 1043.36 1691.92 1043.04 1690.8 1042.4C1689.68 1041.76 1688.8 1040.86 1688.16 1039.7C1687.52 1038.52 1687.2 1037.14 1687.2 1035.56C1687.2 1033.98 1687.52 1032.61 1688.16 1031.45C1688.8 1030.27 1689.68 1029.36 1690.8 1028.72C1691.92 1028.08 1693.2 1027.76 1694.64 1027.76C1696.08 1027.76 1697.35 1028.08 1698.45 1028.72C1699.57 1029.36 1700.44 1030.27 1701.06 1031.45C1701.7 1032.61 1702.02 1033.98 1702.02 1035.56C1702.02 1037.14 1701.7 1038.52 1701.06 1039.7C1700.42 1040.86 1699.54 1041.76 1698.42 1042.4C1697.32 1043.04 1696.05 1043.36 1694.61 1043.36ZM1694.61 1040.33C1695.37 1040.33 1696.07 1040.16 1696.71 1039.82C1697.35 1039.48 1697.86 1038.96 1698.24 1038.26C1698.64 1037.54 1698.84 1036.64 1698.84 1035.56C1698.84 1034.46 1698.64 1033.56 1698.24 1032.86C1697.86 1032.16 1697.35 1031.64 1696.71 1031.3C1696.09 1030.96 1695.4 1030.79 1694.64 1030.79C1693.88 1030.79 1693.18 1030.96 1692.54 1031.3C1691.9 1031.64 1691.38 1032.16 1690.98 1032.86C1690.6 1033.56 1690.41 1034.46 1690.41 1035.56C1690.41 1037.2 1690.82 1038.41 1691.64 1039.19C1692.48 1039.95 1693.47 1040.33 1694.61 1040.33ZM1711.79 1043.36C1710.55 1043.36 1709.44 1043.07 1708.46 1042.49C1707.48 1041.89 1706.7 1041.01 1706.12 1039.85C1705.56 1038.69 1705.28 1037.26 1705.28 1035.56C1705.28 1033.86 1705.57 1032.43 1706.15 1031.27C1706.73 1030.11 1707.51 1029.24 1708.49 1028.66C1709.49 1028.06 1710.6 1027.76 1711.82 1027.76C1712.96 1027.76 1713.9 1027.98 1714.64 1028.42C1715.38 1028.84 1715.93 1029.38 1716.29 1030.04V1021.4H1719.47V1043H1716.74L1716.47 1040.81H1716.29C1715.89 1041.59 1715.32 1042.21 1714.58 1042.67C1713.86 1043.13 1712.93 1043.36 1711.79 1043.36ZM1712.45 1040.33C1713.59 1040.33 1714.53 1039.93 1715.27 1039.13C1716.03 1038.33 1716.41 1037.14 1716.41 1035.56C1716.41 1033.96 1716.03 1032.77 1715.27 1031.99C1714.53 1031.19 1713.59 1030.79 1712.45 1030.79C1711.31 1030.79 1710.36 1031.19 1709.6 1031.99C1708.86 1032.79 1708.49 1033.99 1708.49 1035.59C1708.49 1037.17 1708.86 1038.36 1709.6 1039.16C1710.36 1039.94 1711.31 1040.33 1712.45 1040.33ZM1730.29 1025.84C1729.59 1025.84 1729 1025.62 1728.52 1025.18C1728.06 1024.72 1727.83 1024.16 1727.83 1023.5C1727.83 1022.84 1728.06 1022.29 1728.52 1021.85C1729 1021.41 1729.59 1021.19 1730.29 1021.19C1731.01 1021.19 1731.6 1021.41 1732.06 1021.85C1732.54 1022.29 1732.78 1022.84 1732.78 1023.5C1732.78 1024.16 1732.54 1024.72 1732.06 1025.18C1731.6 1025.62 1731.01 1025.84 1730.29 1025.84ZM1724.32 1043V1040.24H1729V1031.87C1729 1031.21 1728.68 1030.88 1728.04 1030.88H1724.74V1028.12H1728.61C1729.85 1028.12 1730.75 1028.41 1731.31 1028.99C1731.89 1029.55 1732.18 1030.45 1732.18 1031.69V1040.24H1736.86V1043H1724.32ZM1741.92 1043V1028.12H1744.68L1744.95 1030.34H1745.1C1745.5 1029.62 1746.12 1029.01 1746.96 1028.51C1747.8 1028.01 1748.77 1027.76 1749.87 1027.76C1751.69 1027.76 1753.06 1028.31 1753.98 1029.41C1754.9 1030.51 1755.36 1032.13 1755.36 1034.27V1043H1752.18V1034.66C1752.18 1033.42 1751.92 1032.46 1751.4 1031.78C1750.88 1031.1 1750.06 1030.76 1748.94 1030.76C1747.84 1030.76 1746.92 1031.13 1746.18 1031.87C1745.46 1032.61 1745.1 1033.68 1745.1 1035.08V1043H1741.92ZM1766.69 1043.36C1764.73 1043.36 1763.17 1042.9 1762.01 1041.98C1760.85 1041.06 1760.19 1039.84 1760.03 1038.32H1763.3C1763.42 1039.02 1763.77 1039.59 1764.35 1040.03C1764.95 1040.47 1765.74 1040.69 1766.72 1040.69C1767.66 1040.69 1768.38 1040.5 1768.88 1040.12C1769.4 1039.72 1769.66 1039.26 1769.66 1038.74C1769.66 1037.98 1769.35 1037.46 1768.73 1037.18C1768.13 1036.9 1767.24 1036.69 1766.06 1036.55C1765.04 1036.43 1764.11 1036.2 1763.27 1035.86C1762.45 1035.5 1761.8 1035.02 1761.32 1034.42C1760.84 1033.8 1760.6 1033.03 1760.6 1032.11C1760.6 1030.81 1761.11 1029.76 1762.13 1028.96C1763.15 1028.16 1764.57 1027.76 1766.39 1027.76C1768.21 1027.76 1769.62 1028.17 1770.62 1028.99C1771.62 1029.81 1772.2 1030.93 1772.36 1032.35H1769.3C1769.22 1031.75 1768.91 1031.28 1768.37 1030.94C1767.83 1030.58 1767.16 1030.4 1766.36 1030.4C1765.54 1030.4 1764.89 1030.56 1764.41 1030.88C1763.93 1031.18 1763.69 1031.58 1763.69 1032.08C1763.69 1033.16 1764.85 1033.82 1767.17 1034.06C1768.27 1034.18 1769.25 1034.39 1770.11 1034.69C1770.97 1034.97 1771.65 1035.42 1772.15 1036.04C1772.65 1036.64 1772.9 1037.49 1772.9 1038.59C1772.92 1039.49 1772.66 1040.3 1772.12 1041.02C1771.6 1041.74 1770.87 1042.31 1769.93 1042.73C1769.01 1043.15 1767.93 1043.36 1766.69 1043.36ZM1777.59 1045.85V1043H1791.51V1045.85H1777.59ZM1802.66 1043.36C1800.7 1043.36 1799.14 1042.9 1797.98 1041.98C1796.82 1041.06 1796.16 1039.84 1796 1038.32H1799.27C1799.39 1039.02 1799.74 1039.59 1800.32 1040.03C1800.92 1040.47 1801.71 1040.69 1802.69 1040.69C1803.63 1040.69 1804.35 1040.5 1804.85 1040.12C1805.37 1039.72 1805.63 1039.26 1805.63 1038.74C1805.63 1037.98 1805.32 1037.46 1804.7 1037.18C1804.1 1036.9 1803.21 1036.69 1802.03 1036.55C1801.01 1036.43 1800.08 1036.2 1799.24 1035.86C1798.42 1035.5 1797.77 1035.02 1797.29 1034.42C1796.81 1033.8 1796.57 1033.03 1796.57 1032.11C1796.57 1030.81 1797.08 1029.76 1798.1 1028.96C1799.12 1028.16 1800.54 1027.76 1802.36 1027.76C1804.18 1027.76 1805.59 1028.17 1806.59 1028.99C1807.59 1029.81 1808.17 1030.93 1808.33 1032.35H1805.27C1805.19 1031.75 1804.88 1031.28 1804.34 1030.94C1803.8 1030.58 1803.13 1030.4 1802.33 1030.4C1801.51 1030.4 1800.86 1030.56 1800.38 1030.88C1799.9 1031.18 1799.66 1031.58 1799.66 1032.08C1799.66 1033.16 1800.82 1033.82 1803.14 1034.06C1804.24 1034.18 1805.22 1034.39 1806.08 1034.69C1806.94 1034.97 1807.62 1035.42 1808.12 1036.04C1808.62 1036.64 1808.87 1037.49 1808.87 1038.59C1808.89 1039.49 1808.63 1040.3 1808.09 1041.02C1807.57 1041.74 1806.84 1042.31 1805.9 1042.73C1804.98 1043.15 1803.9 1043.36 1802.66 1043.36ZM1813.6 1049.6V1028.12H1816.36L1816.6 1030.4H1816.78C1817.18 1029.66 1817.78 1029.04 1818.58 1028.54C1819.4 1028.02 1820.37 1027.76 1821.49 1027.76C1822.65 1027.76 1823.71 1028.06 1824.67 1028.66C1825.63 1029.24 1826.39 1030.11 1826.95 1031.27C1827.53 1032.41 1827.82 1033.84 1827.82 1035.56C1827.82 1037.26 1827.52 1038.69 1826.92 1039.85C1826.34 1041.01 1825.55 1041.89 1824.55 1042.49C1823.55 1043.07 1822.43 1043.36 1821.19 1043.36C1820.09 1043.36 1819.17 1043.14 1818.43 1042.7C1817.69 1042.26 1817.14 1041.76 1816.78 1041.2V1049.6H1813.6ZM1820.65 1040.33C1821.77 1040.33 1822.7 1039.93 1823.44 1039.13C1824.2 1038.33 1824.58 1037.13 1824.58 1035.53C1824.58 1033.93 1824.2 1032.74 1823.44 1031.96C1822.7 1031.18 1821.77 1030.79 1820.65 1030.79C1819.51 1030.79 1818.56 1031.19 1817.8 1031.99C1817.06 1032.77 1816.69 1033.96 1816.69 1035.56C1816.69 1037.14 1817.06 1038.33 1817.8 1039.13C1818.56 1039.93 1819.51 1040.33 1820.65 1040.33ZM1838.7 1043.36C1837.26 1043.36 1835.99 1043.04 1834.89 1042.4C1833.79 1041.74 1832.93 1040.83 1832.31 1039.67C1831.69 1038.51 1831.38 1037.16 1831.38 1035.62C1831.38 1034.06 1831.68 1032.69 1832.28 1031.51C1832.9 1030.33 1833.76 1029.41 1834.86 1028.75C1835.98 1028.09 1837.27 1027.76 1838.73 1027.76C1840.17 1027.76 1841.41 1028.09 1842.45 1028.75C1843.49 1029.39 1844.29 1030.25 1844.85 1031.33C1845.43 1032.41 1845.72 1033.6 1845.72 1034.9C1845.72 1035.1 1845.72 1035.32 1845.72 1035.56C1845.72 1035.78 1845.71 1036.03 1845.69 1036.31H1834.5C1834.6 1037.69 1835.05 1038.74 1835.85 1039.46C1836.65 1040.16 1837.59 1040.51 1838.67 1040.51C1839.61 1040.51 1840.35 1040.32 1840.89 1039.94C1841.45 1039.54 1841.86 1039 1842.12 1038.32H1845.33C1844.97 1039.74 1844.22 1040.94 1843.08 1041.92C1841.94 1042.88 1840.48 1043.36 1838.7 1043.36ZM1838.7 1030.52C1837.72 1030.52 1836.85 1030.82 1836.09 1031.42C1835.33 1032 1834.84 1032.82 1834.62 1033.88H1842.54C1842.46 1032.88 1842.07 1032.07 1841.37 1031.45C1840.67 1030.83 1839.78 1030.52 1838.7 1030.52ZM1855.16 1043.36C1853.98 1043.36 1852.99 1043.16 1852.19 1042.76C1851.39 1042.34 1850.79 1041.79 1850.39 1041.11C1849.99 1040.41 1849.79 1039.65 1849.79 1038.83C1849.79 1037.37 1850.32 1036.23 1851.38 1035.41C1852.46 1034.59 1853.98 1034.18 1855.94 1034.18H1859.78V1033.85C1859.78 1031.61 1858.74 1030.49 1856.66 1030.49C1855.8 1030.49 1855.07 1030.68 1854.47 1031.06C1853.89 1031.42 1853.5 1032.01 1853.3 1032.83H1850.12C1850.28 1031.27 1850.95 1030.04 1852.13 1029.14C1853.33 1028.22 1854.84 1027.76 1856.66 1027.76C1858.86 1027.76 1860.46 1028.3 1861.46 1029.38C1862.46 1030.46 1862.96 1031.95 1862.96 1033.85V1043H1860.26L1859.99 1040.81H1859.78C1859.34 1041.51 1858.79 1042.11 1858.13 1042.61C1857.47 1043.11 1856.48 1043.36 1855.16 1043.36ZM1855.76 1040.69C1857.06 1040.69 1858.03 1040.3 1858.67 1039.52C1859.33 1038.72 1859.69 1037.71 1859.75 1036.49H1856.27C1855.13 1036.49 1854.32 1036.68 1853.84 1037.06C1853.38 1037.42 1853.15 1037.93 1853.15 1038.59C1853.15 1039.25 1853.38 1039.77 1853.84 1040.15C1854.32 1040.51 1854.96 1040.69 1855.76 1040.69ZM1867.81 1043V1040.24H1871.44V1031.87C1871.44 1031.21 1871.12 1030.88 1870.48 1030.88H1868.11V1028.12H1871.68C1872.5 1028.12 1873.17 1028.36 1873.69 1028.84C1874.21 1029.3 1874.47 1029.95 1874.47 1030.79V1031.15H1874.62C1874.84 1030.03 1875.31 1029.19 1876.03 1028.63C1876.77 1028.05 1877.84 1027.76 1879.24 1027.76H1881.55V1031.12H1878.31C1877.13 1031.12 1876.22 1031.53 1875.58 1032.35C1874.94 1033.17 1874.62 1034.15 1874.62 1035.29V1040.24H1879.24V1043H1867.81Z" fill="black"/>
<path d="M847.6 641C842.6 641 837.967 640.1 833.7 638.3C829.433 636.5 825.7 634 822.5 630.8C819.367 627.533 816.933 623.7 815.2 619.3C813.467 614.9 812.6 610.1 812.6 604.9C812.6 599.7 813.467 594.9 815.2 590.5C816.933 586.1 819.367 582.3 822.5 579.1C825.7 575.833 829.433 573.3 833.7 571.5C837.967 569.7 842.6 568.8 847.6 568.8C852.667 568.8 857.333 569.7 861.6 571.5C865.867 573.3 869.567 575.833 872.7 579.1C875.833 582.367 878.267 586.2 880 590.6C881.733 594.933 882.6 599.7 882.6 604.9C882.6 610.033 881.733 614.8 880 619.2C878.267 623.6 875.833 627.433 872.7 630.7C869.567 633.967 865.867 636.5 861.6 638.3C857.333 640.1 852.667 641 847.6 641ZM847.6 628.6C850.8 628.6 853.7 628.033 856.3 626.9C858.967 625.7 861.267 624.033 863.2 621.9C865.133 619.7 866.633 617.167 867.7 614.3C868.833 611.433 869.4 608.3 869.4 604.9C869.4 601.5 868.833 598.367 867.7 595.5C866.633 592.633 865.133 590.133 863.2 588C861.267 585.8 858.967 584.133 856.3 583C853.7 581.8 850.8 581.2 847.6 581.2C844.467 581.2 841.567 581.8 838.9 583C836.233 584.133 833.933 585.767 832 587.9C830.067 590.033 828.567 592.533 827.5 595.4C826.433 598.267 825.9 601.433 825.9 604.9C825.9 608.3 826.433 611.467 827.5 614.4C828.567 617.267 830.067 619.767 832 621.9C833.933 624.033 836.233 625.7 838.9 626.9C841.567 628.033 844.467 628.6 847.6 628.6ZM915.697 641C911.03 641 906.83 639.833 903.097 637.5C899.43 635.1 896.497 631.867 894.297 627.8C892.164 623.667 891.097 618.933 891.097 613.6C891.097 608.333 892.164 603.633 894.297 599.5C896.43 595.367 899.33 592.133 902.997 589.8C906.73 587.4 910.93 586.2 915.597 586.2C918.13 586.2 920.564 586.6 922.897 587.4C925.297 588.2 927.43 589.3 929.297 590.7C931.164 592.033 932.63 593.533 933.697 595.2C934.83 596.867 935.464 598.6 935.597 600.4L932.297 600.8V566H944.597V640H932.697L932.397 627.6L934.797 627.8C934.73 629.467 934.13 631.067 932.997 632.6C931.93 634.133 930.53 635.533 928.797 636.8C927.064 638.067 925.03 639.1 922.697 639.9C920.43 640.633 918.097 641 915.697 641ZM918.097 630.6C920.964 630.6 923.497 629.867 925.697 628.4C927.897 626.933 929.597 624.933 930.797 622.4C932.064 619.867 932.697 616.933 932.697 613.6C932.697 610.333 932.064 607.433 930.797 604.9C929.597 602.3 927.897 600.3 925.697 598.9C923.497 597.433 920.964 596.7 918.097 596.7C915.23 596.7 912.697 597.433 910.497 598.9C908.297 600.3 906.564 602.3 905.297 604.9C904.097 607.433 903.497 610.333 903.497 613.6C903.497 616.933 904.097 619.867 905.297 622.4C906.564 624.933 908.297 626.933 910.497 628.4C912.697 629.867 915.23 630.6 918.097 630.6ZM959.959 640V587.3H972.259V640H959.959ZM965.959 576.1C963.493 576.1 961.559 575.5 960.159 574.3C958.826 573.033 958.159 571.267 958.159 569C958.159 566.867 958.859 565.133 960.259 563.8C961.659 562.467 963.559 561.8 965.959 561.8C968.493 561.8 970.426 562.433 971.759 563.7C973.159 564.9 973.859 566.667 973.859 569C973.859 571.067 973.159 572.767 971.759 574.1C970.359 575.433 968.426 576.1 965.959 576.1ZM987.856 640V587.3H999.856L1000.06 598.1L997.756 599.3C998.423 596.9 999.723 594.733 1001.66 592.8C1003.59 590.8 1005.89 589.2 1008.56 588C1011.22 586.8 1013.96 586.2 1016.76 586.2C1020.76 586.2 1024.09 587 1026.76 588.6C1029.49 590.2 1031.52 592.6 1032.86 595.8C1034.26 599 1034.96 603 1034.96 607.8V640H1022.66V608.7C1022.66 606.033 1022.29 603.833 1021.56 602.1C1020.82 600.3 1019.69 599 1018.16 598.2C1016.62 597.333 1014.76 596.933 1012.56 597C1010.76 597 1009.09 597.3 1007.56 597.9C1006.09 598.433 1004.79 599.233 1003.66 600.3C1002.59 601.3 1001.72 602.467 1001.06 603.8C1000.46 605.133 1000.16 606.6 1000.16 608.2V640H994.056C992.856 640 991.723 640 990.656 640C989.656 640 988.723 640 987.856 640ZM1047.89 594.1L1043.79 589.2C1046.46 588 1048.63 586.6 1050.29 585C1051.96 583.333 1052.79 581.933 1052.79 580.8C1052.79 580 1052.46 579.267 1051.79 578.6C1051.19 577.867 1050.53 577.233 1049.79 576.7C1048.26 575.5 1047.23 574.467 1046.69 573.6C1046.16 572.733 1045.89 571.767 1045.89 570.7C1045.89 568.967 1046.53 567.567 1047.79 566.5C1049.13 565.433 1050.79 564.9 1052.79 564.9C1054.66 564.9 1056.36 565.4 1057.89 566.4C1059.49 567.4 1060.73 568.767 1061.59 570.5C1062.46 572.233 1062.89 574.3 1062.89 576.7C1062.89 578.567 1062.53 580.4 1061.79 582.2C1061.06 584 1059.99 585.7 1058.59 587.3C1057.26 588.833 1055.66 590.2 1053.79 591.4C1051.99 592.6 1050.03 593.5 1047.89 594.1ZM1091.69 641C1087.02 641 1082.82 640.233 1079.09 638.7C1075.42 637.1 1072.42 634.833 1070.09 631.9L1078.09 625C1080.09 627.267 1082.32 628.9 1084.79 629.9C1087.25 630.9 1089.85 631.4 1092.59 631.4C1093.72 631.4 1094.72 631.267 1095.59 631C1096.52 630.733 1097.32 630.333 1097.99 629.8C1098.65 629.267 1099.15 628.667 1099.49 628C1099.89 627.267 1100.09 626.467 1100.09 625.6C1100.09 624 1099.49 622.733 1098.29 621.8C1097.62 621.333 1096.55 620.833 1095.09 620.3C1093.69 619.767 1091.85 619.233 1089.59 618.7C1085.99 617.767 1082.99 616.7 1080.59 615.5C1078.19 614.233 1076.32 612.833 1074.99 611.3C1073.85 610.033 1072.99 608.6 1072.39 607C1071.85 605.4 1071.59 603.667 1071.59 601.8C1071.59 599.467 1072.09 597.367 1073.09 595.5C1074.15 593.567 1075.59 591.9 1077.39 590.5C1079.19 589.1 1081.29 588.033 1083.69 587.3C1086.09 586.567 1088.59 586.2 1091.19 586.2C1093.85 586.2 1096.42 586.533 1098.89 587.2C1101.42 587.867 1103.75 588.833 1105.89 590.1C1108.09 591.3 1109.95 592.767 1111.49 594.5L1104.69 602C1103.42 600.8 1102.02 599.733 1100.49 598.8C1099.02 597.867 1097.52 597.133 1095.99 596.6C1094.45 596 1093.02 595.7 1091.69 595.7C1090.42 595.7 1089.29 595.833 1088.29 596.1C1087.29 596.3 1086.45 596.633 1085.79 597.1C1085.12 597.567 1084.59 598.167 1084.19 598.9C1083.85 599.567 1083.69 600.367 1083.69 601.3C1083.75 602.1 1083.95 602.867 1084.29 603.6C1084.69 604.267 1085.22 604.833 1085.89 605.3C1086.62 605.767 1087.72 606.3 1089.19 606.9C1090.65 607.5 1092.55 608.067 1094.89 608.6C1098.15 609.467 1100.89 610.433 1103.09 611.5C1105.29 612.567 1107.02 613.8 1108.29 615.2C1109.55 616.4 1110.45 617.8 1110.99 619.4C1111.52 621 1111.79 622.767 1111.79 624.7C1111.79 627.833 1110.89 630.633 1109.09 633.1C1107.35 635.567 1104.95 637.5 1101.89 638.9C1098.89 640.3 1095.49 641 1091.69 641ZM1176.42 641C1172.35 641 1168.62 640.5 1165.22 639.5C1161.82 638.433 1158.75 636.867 1156.02 634.8C1153.28 632.733 1150.85 630.233 1148.72 627.3L1157.22 617.7C1160.48 622.233 1163.68 625.367 1166.82 627.1C1169.95 628.833 1173.48 629.7 1177.42 629.7C1179.68 629.7 1181.75 629.367 1183.62 628.7C1185.48 627.967 1186.95 627 1188.02 625.8C1189.08 624.533 1189.62 623.1 1189.62 621.5C1189.62 620.367 1189.38 619.333 1188.92 618.4C1188.52 617.4 1187.88 616.533 1187.02 615.8C1186.15 615 1185.08 614.267 1183.82 613.6C1182.55 612.933 1181.12 612.367 1179.52 611.9C1177.92 611.433 1176.15 611 1174.22 610.6C1170.55 609.867 1167.35 608.9 1164.62 607.7C1161.88 606.433 1159.58 604.9 1157.72 603.1C1155.85 601.233 1154.48 599.167 1153.62 596.9C1152.75 594.567 1152.32 591.933 1152.32 589C1152.32 586.067 1152.95 583.367 1154.22 580.9C1155.55 578.433 1157.35 576.3 1159.62 574.5C1161.88 572.7 1164.52 571.3 1167.52 570.3C1170.52 569.3 1173.75 568.8 1177.22 568.8C1181.15 568.8 1184.65 569.267 1187.72 570.2C1190.85 571.133 1193.58 572.533 1195.92 574.4C1198.32 576.2 1200.28 578.4 1201.82 581L1193.22 589.5C1191.88 587.433 1190.38 585.733 1188.72 584.4C1187.05 583 1185.25 581.967 1183.32 581.3C1181.38 580.567 1179.35 580.2 1177.22 580.2C1174.82 580.2 1172.72 580.533 1170.92 581.2C1169.18 581.867 1167.82 582.833 1166.82 584.1C1165.82 585.3 1165.32 586.767 1165.32 588.5C1165.32 589.833 1165.62 591.033 1166.22 592.1C1166.82 593.1 1167.65 594 1168.72 594.8C1169.85 595.6 1171.28 596.3 1173.02 596.9C1174.75 597.5 1176.72 598.033 1178.92 598.5C1182.58 599.233 1185.88 600.233 1188.82 601.5C1191.75 602.7 1194.25 604.167 1196.32 605.9C1198.38 607.567 1199.95 609.5 1201.02 611.7C1202.08 613.833 1202.62 616.233 1202.62 618.9C1202.62 623.5 1201.52 627.467 1199.32 630.8C1197.18 634.067 1194.15 636.6 1190.22 638.4C1186.28 640.133 1181.68 641 1176.42 641ZM1214.71 662V587.3H1226.81L1227.01 599.3L1224.91 598.4C1225.31 596.333 1226.45 594.4 1228.31 592.6C1230.18 590.733 1232.45 589.233 1235.11 588.1C1237.85 586.967 1240.68 586.4 1243.61 586.4C1248.28 586.4 1252.41 587.567 1256.01 589.9C1259.68 592.233 1262.55 595.433 1264.61 599.5C1266.75 603.567 1267.81 608.267 1267.81 613.6C1267.81 618.867 1266.75 623.567 1264.61 627.7C1262.55 631.767 1259.68 635 1256.01 637.4C1252.41 639.733 1248.35 640.9 1243.81 640.9C1240.75 640.9 1237.78 640.3 1234.91 639.1C1232.11 637.9 1229.71 636.333 1227.71 634.4C1225.78 632.467 1224.58 630.433 1224.11 628.3L1227.11 626.9V662H1214.71ZM1241.31 630C1244.11 630 1246.61 629.3 1248.81 627.9C1251.01 626.5 1252.71 624.567 1253.91 622.1C1255.18 619.633 1255.81 616.8 1255.81 613.6C1255.81 610.4 1255.21 607.6 1254.01 605.2C1252.81 602.733 1251.11 600.8 1248.91 599.4C1246.71 598 1244.18 597.3 1241.31 597.3C1238.38 597.3 1235.81 598 1233.61 599.4C1231.48 600.733 1229.78 602.633 1228.51 605.1C1227.25 607.567 1226.61 610.4 1226.61 613.6C1226.61 616.8 1227.25 619.633 1228.51 622.1C1229.78 624.567 1231.48 626.5 1233.61 627.9C1235.81 629.3 1238.38 630 1241.31 630ZM1303.47 641C1297.94 641 1293.04 639.833 1288.77 637.5C1284.57 635.167 1281.27 632 1278.87 628C1276.54 623.933 1275.37 619.3 1275.37 614.1C1275.37 609.967 1276.04 606.2 1277.37 602.8C1278.71 599.4 1280.54 596.467 1282.87 594C1285.27 591.467 1288.11 589.533 1291.37 588.2C1294.71 586.8 1298.34 586.1 1302.27 586.1C1305.74 586.1 1308.97 586.767 1311.97 588.1C1314.97 589.433 1317.57 591.267 1319.77 593.6C1321.97 595.867 1323.64 598.6 1324.77 601.8C1325.97 604.933 1326.54 608.367 1326.47 612.1L1326.37 616.4H1283.67L1281.37 608H1316.07L1314.47 609.7V607.5C1314.27 605.433 1313.61 603.633 1312.47 602.1C1311.34 600.5 1309.87 599.267 1308.07 598.4C1306.34 597.467 1304.41 597 1302.27 597C1299.01 597 1296.24 597.633 1293.97 598.9C1291.77 600.167 1290.11 602 1288.97 604.4C1287.84 606.733 1287.27 609.667 1287.27 613.2C1287.27 616.6 1287.97 619.567 1289.37 622.1C1290.84 624.633 1292.87 626.6 1295.47 628C1298.14 629.333 1301.24 630 1304.77 630C1307.24 630 1309.51 629.6 1311.57 628.8C1313.64 628 1315.87 626.567 1318.27 624.5L1324.37 633C1322.57 634.667 1320.51 636.1 1318.17 637.3C1315.91 638.433 1313.51 639.333 1310.97 640C1308.44 640.667 1305.94 641 1303.47 641ZM1357.27 641C1352.93 641 1349 639.8 1345.47 637.4C1341.93 635 1339.1 631.733 1336.97 627.6C1334.83 623.467 1333.77 618.767 1333.77 613.5C1333.77 608.233 1334.83 603.533 1336.97 599.4C1339.1 595.267 1342 592.033 1345.67 589.7C1349.33 587.367 1353.47 586.2 1358.07 586.2C1360.73 586.2 1363.17 586.6 1365.37 587.4C1367.57 588.133 1369.5 589.2 1371.17 590.6C1372.83 592 1374.2 593.6 1375.27 595.4C1376.4 597.2 1377.17 599.133 1377.57 601.2L1374.87 600.5V587.3H1387.27V640H1374.77V627.4L1377.67 626.9C1377.2 628.7 1376.33 630.467 1375.07 632.2C1373.87 633.867 1372.33 635.367 1370.47 636.7C1368.67 637.967 1366.63 639 1364.37 639.8C1362.17 640.6 1359.8 641 1357.27 641ZM1360.67 630.1C1363.53 630.1 1366.07 629.4 1368.27 628C1370.47 626.6 1372.17 624.667 1373.37 622.2C1374.63 619.667 1375.27 616.767 1375.27 613.5C1375.27 610.3 1374.63 607.467 1373.37 605C1372.17 602.533 1370.47 600.6 1368.27 599.2C1366.07 597.8 1363.53 597.1 1360.67 597.1C1357.8 597.1 1355.27 597.8 1353.07 599.2C1350.93 600.6 1349.27 602.533 1348.07 605C1346.87 607.467 1346.27 610.3 1346.27 613.5C1346.27 616.767 1346.87 619.667 1348.07 622.2C1349.27 624.667 1350.93 626.6 1353.07 628C1355.27 629.4 1357.8 630.1 1360.67 630.1ZM1401.53 640V587.3H1413.63L1413.83 604.1L1412.13 600.3C1412.86 597.633 1414.13 595.233 1415.93 593.1C1417.73 590.967 1419.79 589.3 1422.13 588.1C1424.53 586.833 1427.03 586.2 1429.63 586.2C1430.76 586.2 1431.83 586.3 1432.83 586.5C1433.89 586.7 1434.76 586.933 1435.43 587.2L1432.13 600.7C1431.39 600.3 1430.49 599.967 1429.43 599.7C1428.36 599.433 1427.29 599.3 1426.23 599.3C1424.56 599.3 1422.96 599.633 1421.43 600.3C1419.96 600.9 1418.66 601.767 1417.53 602.9C1416.39 604.033 1415.49 605.367 1414.83 606.9C1414.23 608.367 1413.93 610.033 1413.93 611.9V640H1401.53Z" fill="#1C3A3A"/>
</svg>
